{"glyphs":{"0":{"ha":1389,"x_min":174,"x_max":1389,"o":"m 694 174 l 1042 174 l 1042 0 l 521 0 l 521 174 l 347 174 l 347 347 l 174 347 l 174 868 l 347 868 l 347 1042 l 521 1042 l 521 347 l 694 347 l 694 174 m 1042 174 l 1042 868 l 868 868 l 868 1042 l 521 1042 l 521 1215 l 1042 1215 l 1042 1042 l 1215 1042 l 1215 868 l 1389 868 l 1389 347 l 1215 347 l 1215 174 l 1042 174 z "},"1":{"ha":1389,"x_min":347,"x_max":1389,"o":"m 694 174 l 694 868 l 521 868 l 521 1042 l 694 1042 l 694 1215 l 1042 1215 l 1042 174 l 1389 174 l 1389 0 l 347 0 l 347 174 l 694 174 z "},"2":{"ha":1389,"x_min":174,"x_max":1389,"o":"m 347 347 l 347 521 l 521 521 l 521 694 l 868 694 l 868 868 l 1042 868 l 1042 1042 l 521 1042 l 521 868 l 174 868 l 174 1042 l 347 1042 l 347 1215 l 1215 1215 l 1215 1042 l 1389 1042 l 1389 694 l 1215 694 l 1215 521 l 1042 521 l 1042 347 l 694 347 l 694 174 l 1389 174 l 1389 0 l 174 0 l 174 347 l 347 347 z "},"3":{"ha":1389,"x_min":174,"x_max":1389,"o":"m 174 174 l 174 347 l 521 347 l 521 174 l 1042 174 l 1042 521 l 521 521 l 521 694 l 694 694 l 694 868 l 868 868 l 868 1042 l 347 1042 l 347 1215 l 1389 1215 l 1389 1042 l 1215 1042 l 1215 868 l 1042 868 l 1042 694 l 1215 694 l 1215 521 l 1389 521 l 1389 174 l 1215 174 l 1215 0 l 347 0 l 347 174 l 174 174 z "},"4":{"ha":1389,"x_min":174,"x_max":1389,"o":"m 174 347 l 174 694 l 347 694 l 347 868 l 521 868 l 521 1042 l 694 1042 l 694 1215 l 1215 1215 l 1215 521 l 1389 521 l 1389 347 l 1215 347 l 1215 0 l 868 0 l 868 347 l 174 347 m 521 521 l 868 521 l 868 868 l 694 868 l 694 694 l 521 694 l 521 521 z "},"5":{"ha":1389,"x_min":174,"x_max":1389,"o":"m 174 174 l 174 347 l 521 347 l 521 174 l 1042 174 l 1042 694 l 174 694 l 174 1215 l 1215 1215 l 1215 1042 l 521 1042 l 521 868 l 1215 868 l 1215 694 l 1389 694 l 1389 174 l 1215 174 l 1215 0 l 347 0 l 347 174 l 174 174 z "},"6":{"ha":1389,"x_min":174,"x_max":1389,"o":"m 174 174 l 174 868 l 347 868 l 347 1042 l 521 1042 l 521 1215 l 1215 1215 l 1215 1042 l 694 1042 l 694 868 l 521 868 l 521 694 l 1215 694 l 1215 521 l 1389 521 l 1389 174 l 1215 174 l 1215 0 l 347 0 l 347 174 l 174 174 m 521 174 l 1042 174 l 1042 521 l 521 521 l 521 174 z "},"7":{"ha":1389,"x_min":174,"x_max":1389,"o":"m 694 521 l 694 694 l 868 694 l 868 868 l 1042 868 l 1042 1042 l 521 1042 l 521 868 l 174 868 l 174 1215 l 1389 1215 l 1389 868 l 1215 868 l 1215 694 l 1042 694 l 1042 521 l 868 521 l 868 0 l 521 0 l 521 521 l 694 521 z "},"8":{"ha":1389,"x_min":174,"x_max":1389,"o":"m 1042 174 l 1042 347 l 694 347 l 694 521 l 347 521 l 347 694 l 174 694 l 174 1042 l 347 1042 l 347 1215 l 1042 1215 l 1042 1042 l 1215 1042 l 1215 694 l 1042 694 l 1042 1042 l 521 1042 l 521 868 l 694 868 l 694 694 l 1042 694 l 1042 521 l 1389 521 l 1389 174 l 1215 174 l 1215 0 l 347 0 l 347 174 l 1042 174 m 347 174 l 174 174 l 174 521 l 347 521 l 347 174 z "},"9":{"ha":1389,"x_min":174,"x_max":1389,"o":"m 868 174 l 868 347 l 1042 347 l 1042 521 l 347 521 l 347 694 l 174 694 l 174 1042 l 347 1042 l 347 1215 l 1215 1215 l 1215 1042 l 1389 1042 l 1389 347 l 1215 347 l 1215 174 l 1042 174 l 1042 0 l 347 0 l 347 174 l 868 174 m 521 694 l 1042 694 l 1042 1042 l 521 1042 l 521 694 z "},"B":{"ha":1389,"x_min":174,"x_max":1389,"o":"m 1215 1215 l 1215 1042 l 1389 1042 l 1389 694 l 1215 694 l 1215 521 l 1389 521 l 1389 174 l 1215 174 l 1215 0 l 174 0 l 174 1215 l 1215 1215 m 521 694 l 1042 694 l 1042 1042 l 521 1042 l 521 694 m 521 174 l 1042 174 l 1042 521 l 521 521 l 521 174 z "},"C":{"ha":1389,"x_min":174,"x_max":1389,"o":"m 347 174 l 347 347 l 174 347 l 174 868 l 347 868 l 347 1042 l 521 1042 l 521 1215 l 1215 1215 l 1215 1042 l 1389 1042 l 1389 868 l 1042 868 l 1042 1042 l 694 1042 l 694 868 l 521 868 l 521 347 l 694 347 l 694 174 l 1042 174 l 1042 347 l 1389 347 l 1389 174 l 1215 174 l 1215 0 l 521 0 l 521 174 l 347 174 z "},"D":{"ha":1389,"x_min":174,"x_max":1389,"o":"m 1042 1215 l 1042 1042 l 1215 1042 l 1215 868 l 1389 868 l 1389 347 l 1215 347 l 1215 174 l 1042 174 l 1042 0 l 174 0 l 174 1215 l 1042 1215 m 521 174 l 868 174 l 868 347 l 1042 347 l 1042 868 l 868 868 l 868 1042 l 521 1042 l 521 174 z "},"E":{"ha":1389,"x_min":174,"x_max":1389,"o":"m 1389 1215 l 1389 1042 l 521 1042 l 521 694 l 1215 694 l 1215 521 l 521 521 l 521 174 l 1389 174 l 1389 0 l 174 0 l 174 1215 l 1389 1215 z "},"F":{"ha":1389,"x_min":174,"x_max":1389,"o":"m 1389 1215 l 1389 1042 l 521 1042 l 521 694 l 1215 694 l 1215 521 l 521 521 l 521 0 l 174 0 l 174 1215 l 1389 1215 z "},"G":{"ha":1389,"x_min":174,"x_max":1389,"o":"m 347 174 l 347 347 l 174 347 l 174 868 l 347 868 l 347 1042 l 521 1042 l 521 1215 l 1389 1215 l 1389 1042 l 694 1042 l 694 868 l 521 868 l 521 347 l 694 347 l 694 174 l 1042 174 l 1042 521 l 868 521 l 868 694 l 1389 694 l 1389 0 l 521 0 l 521 174 l 347 174 z "},"H":{"ha":1389,"x_min":174,"x_max":1389,"o":"m 521 1215 l 521 694 l 1042 694 l 1042 1215 l 1389 1215 l 1389 0 l 1042 0 l 1042 521 l 521 521 l 521 0 l 174 0 l 174 1215 l 521 1215 z "},"I":{"ha":1389,"x_min":347,"x_max":1389,"o":"m 694 174 l 694 1042 l 347 1042 l 347 1215 l 1389 1215 l 1389 1042 l 1042 1042 l 1042 174 l 1389 174 l 1389 0 l 347 0 l 347 174 l 694 174 z "},"J":{"ha":1389,"x_min":174,"x_max":1389,"o":"m 174 174 l 174 347 l 521 347 l 521 174 l 1042 174 l 1042 1215 l 1389 1215 l 1389 174 l 1215 174 l 1215 0 l 347 0 l 347 174 l 174 174 z "},"K":{"ha":1389,"x_min":174,"x_max":1389,"o":"m 521 1215 l 521 694 l 694 694 l 694 868 l 868 868 l 868 1042 l 1042 1042 l 1042 1215 l 1389 1215 l 1389 1042 l 1215 1042 l 1215 868 l 1042 868 l 1042 694 l 868 694 l 868 521 l 1042 521 l 1042 347 l 1215 347 l 1215 174 l 1389 174 l 1389 0 l 868 0 l 868 174 l 694 174 l 694 347 l 521 347 l 521 0 l 174 0 l 174 1215 l 521 1215 z "},"L":{"ha":1389,"x_min":174,"x_max":1389,"o":"m 521 1215 l 521 174 l 1389 174 l 1389 0 l 174 0 l 174 1215 l 521 1215 z "},"M":{"ha":1389,"x_min":174,"x_max":1389,"o":"m 521 1215 l 521 1042 l 694 1042 l 694 868 l 868 868 l 868 1042 l 1042 1042 l 1042 1215 l 1389 1215 l 1389 0 l 1042 0 l 1042 521 l 868 521 l 868 347 l 694 347 l 694 521 l 521 521 l 521 0 l 174 0 l 174 1215 l 521 1215 z "},"N":{"ha":1389,"x_min":174,"x_max":1389,"o":"m 521 1215 l 521 1042 l 694 1042 l 694 868 l 868 868 l 868 694 l 1042 694 l 1042 1215 l 1389 1215 l 1389 0 l 1042 0 l 1042 174 l 868 174 l 868 347 l 694 347 l 694 521 l 521 521 l 521 0 l 174 0 l 174 1215 l 521 1215 z "},"O":{"ha":1389,"x_min":174,"x_max":1389,"o":"m 174 174 l 174 1042 l 347 1042 l 347 1215 l 1215 1215 l 1215 1042 l 1389 1042 l 1389 174 l 1215 174 l 1215 0 l 347 0 l 347 174 l 174 174 m 521 174 l 1042 174 l 1042 1042 l 521 1042 l 521 174 z "},"P":{"ha":1389,"x_min":174,"x_max":1389,"o":"m 1215 1215 l 1215 1042 l 1389 1042 l 1389 521 l 1215 521 l 1215 347 l 521 347 l 521 0 l 174 0 l 174 1215 l 1215 1215 m 521 521 l 1042 521 l 1042 1042 l 521 1042 l 521 521 z "},"Q":{"ha":1389,"x_min":174,"x_max":1389,"o":"m 1042 174 l 1042 0 l 347 0 l 347 174 l 174 174 l 174 1042 l 347 1042 l 347 1215 l 1215 1215 l 1215 1042 l 1389 1042 l 1389 347 l 1215 347 l 1215 174 l 1042 174 m 521 174 l 868 174 l 868 347 l 694 347 l 694 521 l 1042 521 l 1042 1042 l 521 1042 l 521 174 m 1389 174 l 1389 0 l 1215 0 l 1215 174 l 1389 174 z "},"R":{"ha":1389,"x_min":174,"x_max":1389,"o":"m 1215 1215 l 1215 1042 l 1389 1042 l 1389 521 l 1042 521 l 1042 347 l 1215 347 l 1215 174 l 1389 174 l 1389 0 l 868 0 l 868 174 l 694 174 l 694 347 l 521 347 l 521 0 l 174 0 l 174 1215 l 1215 1215 m 521 521 l 868 521 l 868 694 l 1042 694 l 1042 1042 l 521 1042 l 521 521 z "},"S":{"ha":1389,"x_min":174,"x_max":1389,"o":"m 174 174 l 174 347 l 521 347 l 521 174 l 1042 174 l 1042 521 l 347 521 l 347 694 l 174 694 l 174 1042 l 347 1042 l 347 1215 l 1042 1215 l 1042 1042 l 1215 1042 l 1215 868 l 868 868 l 868 1042 l 521 1042 l 521 694 l 1215 694 l 1215 521 l 1389 521 l 1389 174 l 1215 174 l 1215 0 l 347 0 l 347 174 l 174 174 z "},"T":{"ha":1389,"x_min":347,"x_max":1389,"o":"m 347 1042 l 347 1215 l 1389 1215 l 1389 1042 l 1042 1042 l 1042 0 l 694 0 l 694 1042 l 347 1042 z "},"U":{"ha":1389,"x_min":174,"x_max":1389,"o":"m 174 174 l 174 1215 l 521 1215 l 521 174 l 1042 174 l 1042 1215 l 1389 1215 l 1389 174 l 1215 174 l 1215 0 l 347 0 l 347 174 l 174 174 z "},"V":{"ha":1389,"x_min":174,"x_max":1389,"o":"m 521 174 l 521 347 l 347 347 l 347 521 l 174 521 l 174 1215 l 521 1215 l 521 694 l 694 694 l 694 521 l 868 521 l 868 694 l 1042 694 l 1042 1215 l 1389 1215 l 1389 521 l 1215 521 l 1215 347 l 1042 347 l 1042 174 l 868 174 l 868 0 l 694 0 l 694 174 l 521 174 z "},"W":{"ha":1389,"x_min":174,"x_max":1389,"o":"m 521 1215 l 521 694 l 694 694 l 694 868 l 868 868 l 868 694 l 1042 694 l 1042 1215 l 1389 1215 l 1389 0 l 1042 0 l 1042 174 l 868 174 l 868 347 l 694 347 l 694 174 l 521 174 l 521 0 l 174 0 l 174 1215 l 521 1215 z "},"X":{"ha":1389,"x_min":174,"x_max":1389,"o":"m 347 347 l 347 521 l 521 521 l 521 694 l 347 694 l 347 868 l 174 868 l 174 1215 l 521 1215 l 521 1042 l 694 1042 l 694 868 l 868 868 l 868 1042 l 1042 1042 l 1042 1215 l 1389 1215 l 1389 868 l 1215 868 l 1215 694 l 1042 694 l 1042 521 l 1215 521 l 1215 347 l 1389 347 l 1389 0 l 1042 0 l 1042 174 l 868 174 l 868 347 l 694 347 l 694 174 l 521 174 l 521 0 l 174 0 l 174 347 l 347 347 z "},"Y":{"ha":1389,"x_min":347,"x_max":1389,"o":"m 521 521 l 521 694 l 347 694 l 347 1215 l 694 1215 l 694 694 l 1042 694 l 1042 1215 l 1389 1215 l 1389 694 l 1215 694 l 1215 521 l 1042 521 l 1042 0 l 694 0 l 694 521 l 521 521 z "},"Z":{"ha":1389,"x_min":174,"x_max":1389,"o":"m 347 347 l 347 521 l 521 521 l 521 694 l 694 694 l 694 868 l 868 868 l 868 1042 l 174 1042 l 174 1215 l 1389 1215 l 1389 868 l 1215 868 l 1215 694 l 1042 694 l 1042 521 l 868 521 l 868 347 l 694 347 l 694 174 l 1389 174 l 1389 0 l 174 0 l 174 347 l 347 347 z "},"[":{"ha":1389,"x_min":521,"x_max":1215,"o":"m 1215 1215 l 1215 1042 l 868 1042 l 868 174 l 1215 174 l 1215 0 l 521 0 l 521 1215 l 1215 1215 z "},"]":{"ha":1389,"x_min":347,"x_max":1042,"o":"m 694 174 l 694 1042 l 347 1042 l 347 1215 l 1042 1215 l 1042 0 l 347 0 l 347 174 l 694 174 z "},"?":{"ha":1389,"x_min":174,"x_max":1389,"o":"m 868 521 l 868 694 l 1042 694 l 1042 868 l 521 868 l 521 694 l 174 694 l 174 1042 l 347 1042 l 347 1215 l 1215 1215 l 1215 1042 l 1389 1042 l 1389 694 l 1215 694 l 1215 521 l 1042 521 l 1042 347 l 521 347 l 521 521 l 868 521 m 1042 174 l 1042 0 l 521 0 l 521 174 l 1042 174 z "},">":{"ha":1389,"x_min":347,"x_max":1215,"o":"m 521 174 l 521 347 l 694 347 l 694 521 l 868 521 l 868 694 l 694 694 l 694 868 l 521 868 l 521 1042 l 347 1042 l 347 1215 l 694 1215 l 694 1042 l 868 1042 l 868 868 l 1042 868 l 1042 694 l 1215 694 l 1215 521 l 1042 521 l 1042 347 l 868 347 l 868 174 l 694 174 l 694 0 l 347 0 l 347 174 l 521 174 z "},"=":{"ha":1389,"x_min":347,"x_max":1215,"o":"m 1215 521 l 1215 347 l 347 347 l 347 521 l 1215 521 m 1215 868 l 1215 694 l 347 694 l 347 868 l 1215 868 z "},"<":{"ha":1389,"x_min":347,"x_max":1215,"o":"m 694 174 l 694 347 l 521 347 l 521 521 l 347 521 l 347 694 l 521 694 l 521 868 l 694 868 l 694 1042 l 868 1042 l 868 1215 l 1215 1215 l 1215 1042 l 1042 1042 l 1042 868 l 868 868 l 868 694 l 694 694 l 694 521 l 868 521 l 868 347 l 1042 347 l 1042 174 l 1215 174 l 1215 0 l 868 0 l 868 174 l 694 174 z "},";":{"ha":1389,"x_min":347,"x_max":868,"o":"m 521 174 l 521 521 l 868 521 l 868 174 l 694 174 l 694 0 l 347 0 l 347 174 l 521 174 m 868 1042 l 868 694 l 521 694 l 521 1042 l 868 1042 z "},":":{"ha":1389,"x_min":521,"x_max":868,"o":"m 868 521 l 868 174 l 521 174 l 521 521 l 868 521 m 868 1042 l 868 694 l 521 694 l 521 1042 l 868 1042 z "},".":{"ha":1389,"x_min":521,"x_max":868,"o":"m 868 347 l 868 0 l 521 0 l 521 347 l 868 347 z "},"-":{"ha":1389,"x_min":347,"x_max":1215,"o":"m 1215 694 l 1215 521 l 347 521 l 347 694 l 1215 694 z "},",":{"ha":1389,"x_min":347,"x_max":868,"o":"m 521 174 l 521 521 l 868 521 l 868 174 l 694 174 l 694 0 l 347 0 l 347 174 l 521 174 z "},"+":{"ha":1389,"x_min":347,"x_max":1215,"o":"m 347 521 l 347 694 l 694 694 l 694 1042 l 868 1042 l 868 694 l 1215 694 l 1215 521 l 868 521 l 868 174 l 694 174 l 694 521 l 347 521 z "},")":{"ha":1389,"x_min":521,"x_max":1215,"o":"m 694 174 l 694 347 l 868 347 l 868 868 l 694 868 l 694 1042 l 521 1042 l 521 1215 l 868 1215 l 868 1042 l 1042 1042 l 1042 868 l 1215 868 l 1215 347 l 1042 347 l 1042 174 l 868 174 l 868 0 l 521 0 l 521 174 l 694 174 z "},"(":{"ha":1389,"x_min":347,"x_max":1042,"o":"m 521 174 l 521 347 l 347 347 l 347 868 l 521 868 l 521 1042 l 694 1042 l 694 1215 l 1042 1215 l 1042 1042 l 868 1042 l 868 868 l 694 868 l 694 347 l 868 347 l 868 174 l 1042 174 l 1042 0 l 694 0 l 694 174 l 521 174 z "},"!":{"ha":1389,"x_min":521,"x_max":1042,"o":"m 1042 1215 l 1042 694 l 868 694 l 868 347 l 521 347 l 521 1215 l 1042 1215 m 868 174 l 868 0 l 521 0 l 521 174 l 868 174 z "},"#":{"ha":1389,"x_min":174,"x_max":1389,"o":"m 174 347 l 174 521 l 347 521 l 347 694 l 174 694 l 174 868 l 347 868 l 347 1215 l 694 1215 l 694 868 l 868 868 l 868 1215 l 1215 1215 l 1215 868 l 1389 868 l 1389 694 l 1215 694 l 1215 521 l 1389 521 l 1389 347 l 1215 347 l 1215 0 l 868 0 l 868 347 l 694 347 l 694 0 l 347 0 l 347 347 l 174 347 m 694 521 l 868 521 l 868 694 l 694 694 l 694 521 z "},"$":{"ha":1389,"x_min":174,"x_max":1389,"o":"m 347 174 l 347 347 l 694 347 l 694 521 l 347 521 l 347 694 l 174 694 l 174 868 l 347 868 l 347 1042 l 694 1042 l 694 1215 l 868 1215 l 868 1042 l 1215 1042 l 1215 868 l 868 868 l 868 694 l 1215 694 l 1215 521 l 1389 521 l 1389 347 l 1215 347 l 1215 174 l 868 174 l 868 0 l 694 0 l 694 174 l 347 174 m 521 694 l 694 694 l 694 868 l 521 868 l 521 694 m 868 347 l 1042 347 l 1042 521 l 868 521 l 868 347 z "},"\"":{"ha":1389,"x_min":347,"x_max":1215,"o":"m 694 1215 l 694 868 l 521 868 l 521 694 l 347 694 l 347 1215 l 694 1215 m 1215 1215 l 1215 868 l 1042 868 l 1042 694 l 868 694 l 868 1215 l 1215 1215 z "},"%":{"ha":1389,"x_min":174,"x_max":1389,"o":"m 1215 174 l 1215 347 l 1042 347 l 1042 521 l 1215 521 l 1215 347 l 1389 347 l 1389 174 l 1215 174 m 521 868 l 521 1042 l 347 1042 l 347 1215 l 521 1215 l 521 1042 l 694 1042 l 694 868 l 521 868 m 868 174 l 868 347 l 1042 347 l 1042 174 l 1215 174 l 1215 0 l 1042 0 l 1042 174 l 868 174 m 174 868 l 174 1042 l 347 1042 l 347 868 l 521 868 l 521 694 l 347 694 l 347 868 l 174 868 m 347 174 l 347 347 l 521 347 l 521 174 l 347 174 m 521 347 l 521 521 l 694 521 l 694 347 l 521 347 m 1215 1042 l 1215 1215 l 1389 1215 l 1389 1042 l 1215 1042 m 347 174 l 347 0 l 174 0 l 174 174 l 347 174 m 868 694 l 868 868 l 1042 868 l 1042 694 l 868 694 m 694 521 l 694 694 l 868 694 l 868 521 l 694 521 m 1042 868 l 1042 1042 l 1215 1042 l 1215 868 l 1042 868 z "},"/":{"ha":1389,"x_min":174,"x_max":1389,"o":"m 347 174 l 347 0 l 174 0 l 174 174 l 347 174 m 1215 1042 l 1215 1215 l 1389 1215 l 1389 1042 l 1215 1042 m 1042 868 l 1042 1042 l 1215 1042 l 1215 868 l 1042 868 m 868 694 l 868 868 l 1042 868 l 1042 694 l 868 694 m 694 521 l 694 694 l 868 694 l 868 521 l 694 521 m 521 347 l 521 521 l 694 521 l 694 347 l 521 347 m 347 174 l 347 347 l 521 347 l 521 174 l 347 174 z "},"©":{"ha":1389,"x_min":0,"x_max":1389,"o":"m 174 174 l 174 347 l 0 347 l 0 1042 l 174 1042 l 174 347 l 347 347 l 347 174 l 1042 174 l 1042 0 l 347 0 l 347 174 l 174 174 m 1215 1215 l 1215 1042 l 1389 1042 l 1389 347 l 1215 347 l 1215 1042 l 1042 1042 l 1042 1215 l 1215 1215 m 347 1215 l 347 1389 l 1042 1389 l 1042 1215 l 347 1215 m 347 521 l 347 868 l 521 868 l 521 521 l 868 521 l 868 347 l 521 347 l 521 521 l 347 521 m 521 868 l 521 1042 l 868 1042 l 868 868 l 521 868 m 174 1042 l 174 1215 l 347 1215 l 347 1042 l 174 1042 m 1042 174 l 1042 347 l 1215 347 l 1215 174 l 1042 174 z "},"'":{"ha":1389,"x_min":347,"x_max":694,"o":"m 521 694 l 521 868 l 347 868 l 347 1215 l 694 1215 l 694 694 l 521 694 m 521 694 l 521 521 l 347 521 l 347 694 l 521 694 z "},"&":{"ha":1389,"x_min":174,"x_max":1389,"o":"m 347 174 l 868 174 l 868 347 l 694 347 l 694 521 l 347 521 l 347 1042 l 521 1042 l 521 868 l 694 868 l 694 694 l 868 694 l 868 521 l 1042 521 l 1042 347 l 1215 347 l 1215 174 l 1042 174 l 1042 0 l 347 0 l 347 174 l 174 174 l 174 521 l 347 521 l 347 174 m 868 694 l 868 1042 l 521 1042 l 521 1215 l 868 1215 l 868 1042 l 1042 1042 l 1042 694 l 868 694 m 1215 347 l 1215 521 l 1389 521 l 1389 347 l 1215 347 m 1389 174 l 1389 0 l 1215 0 l 1215 174 l 1389 174 z "},"*":{"ha":1389,"x_min":347,"x_max":1215,"o":"m 694 521 l 694 694 l 521 694 l 521 868 l 347 868 l 347 1042 l 521 1042 l 521 868 l 694 868 l 694 694 l 868 694 l 868 521 l 694 521 m 1042 521 l 1042 347 l 1215 347 l 1215 174 l 1042 174 l 1042 347 l 868 347 l 868 521 l 1042 521 m 521 347 l 521 174 l 347 174 l 347 347 l 521 347 m 868 694 l 868 868 l 1042 868 l 1042 694 l 868 694 m 1042 868 l 1042 1042 l 1215 1042 l 1215 868 l 1042 868 m 521 347 l 521 521 l 694 521 l 694 347 l 521 347 z "},"A":{"ha":1389,"x_min":174,"x_max":1389,"o":"m 347 868 l 347 1042 l 521 1042 l 521 1215 l 1042 1215 l 1042 1042 l 1215 1042 l 1215 868 l 1389 868 l 1389 0 l 1042 0 l 1042 347 l 521 347 l 521 0 l 174 0 l 174 868 l 347 868 m 521 521 l 1042 521 l 1042 868 l 868 868 l 868 1042 l 694 1042 l 694 868 l 521 868 l 521 521 z "}," ":{"ha":1389,"x_min":0,"x_max":0,"o":""},"\\":{"ha":1389,"x_min":174,"x_max":1389,"o":"m 1389 174 l 1389 0 l 1215 0 l 1215 174 l 1042 174 l 1042 347 l 868 347 l 868 521 l 694 521 l 694 694 l 521 694 l 521 868 l 347 868 l 347 1042 l 174 1042 l 174 1215 l 347 1215 l 347 1042 l 521 1042 l 521 868 l 694 868 l 694 694 l 868 694 l 868 521 l 1042 521 l 1042 347 l 1215 347 l 1215 174 l 1389 174 z "},"_":{"ha":1389,"x_min":174,"x_max":1389,"o":"m 1389 0 l 1389 -174 l 174 -174 l 174 0 l 1389 0 z "},"a":{"ha":1389,"x_min":174,"x_max":1389,"o":"m 347 868 l 347 1042 l 521 1042 l 521 1215 l 1042 1215 l 1042 1042 l 1215 1042 l 1215 868 l 1389 868 l 1389 0 l 1042 0 l 1042 347 l 521 347 l 521 0 l 174 0 l 174 868 l 347 868 m 521 521 l 1042 521 l 1042 868 l 868 868 l 868 1042 l 694 1042 l 694 868 l 521 868 l 521 521 z "},"b":{"ha":1389,"x_min":174,"x_max":1389,"o":"m 1215 1215 l 1215 1042 l 1389 1042 l 1389 694 l 1215 694 l 1215 521 l 1389 521 l 1389 174 l 1215 174 l 1215 0 l 174 0 l 174 1215 l 1215 1215 m 521 694 l 1042 694 l 1042 1042 l 521 1042 l 521 694 m 521 174 l 1042 174 l 1042 521 l 521 521 l 521 174 z "},"c":{"ha":1389,"x_min":174,"x_max":1389,"o":"m 347 174 l 347 347 l 174 347 l 174 868 l 347 868 l 347 1042 l 521 1042 l 521 1215 l 1215 1215 l 1215 1042 l 1389 1042 l 1389 868 l 1042 868 l 1042 1042 l 694 1042 l 694 868 l 521 868 l 521 347 l 694 347 l 694 174 l 1042 174 l 1042 347 l 1389 347 l 1389 174 l 1215 174 l 1215 0 l 521 0 l 521 174 l 347 174 z "},"d":{"ha":1389,"x_min":174,"x_max":1389,"o":"m 1042 1215 l 1042 1042 l 1215 1042 l 1215 868 l 1389 868 l 1389 347 l 1215 347 l 1215 174 l 1042 174 l 1042 0 l 174 0 l 174 1215 l 1042 1215 m 521 174 l 868 174 l 868 347 l 1042 347 l 1042 868 l 868 868 l 868 1042 l 521 1042 l 521 174 z "},"e":{"ha":1389,"x_min":174,"x_max":1389,"o":"m 1389 1215 l 1389 1042 l 521 1042 l 521 694 l 1215 694 l 1215 521 l 521 521 l 521 174 l 1389 174 l 1389 0 l 174 0 l 174 1215 l 1389 1215 z "},"f":{"ha":1389,"x_min":174,"x_max":1389,"o":"m 1389 1215 l 1389 1042 l 521 1042 l 521 694 l 1215 694 l 1215 521 l 521 521 l 521 0 l 174 0 l 174 1215 l 1389 1215 z "},"g":{"ha":1389,"x_min":174,"x_max":1389,"o":"m 347 174 l 347 347 l 174 347 l 174 868 l 347 868 l 347 1042 l 521 1042 l 521 1215 l 1389 1215 l 1389 1042 l 694 1042 l 694 868 l 521 868 l 521 347 l 694 347 l 694 174 l 1042 174 l 1042 521 l 868 521 l 868 694 l 1389 694 l 1389 0 l 521 0 l 521 174 l 347 174 z "},"h":{"ha":1389,"x_min":174,"x_max":1389,"o":"m 521 1215 l 521 694 l 1042 694 l 1042 1215 l 1389 1215 l 1389 0 l 1042 0 l 1042 521 l 521 521 l 521 0 l 174 0 l 174 1215 l 521 1215 z "},"i":{"ha":1389,"x_min":347,"x_max":1389,"o":"m 694 174 l 694 1042 l 347 1042 l 347 1215 l 1389 1215 l 1389 1042 l 1042 1042 l 1042 174 l 1389 174 l 1389 0 l 347 0 l 347 174 l 694 174 z "},"j":{"ha":1389,"x_min":174,"x_max":1389,"o":"m 174 174 l 174 347 l 521 347 l 521 174 l 1042 174 l 1042 1215 l 1389 1215 l 1389 174 l 1215 174 l 1215 0 l 347 0 l 347 174 l 174 174 z "},"k":{"ha":1389,"x_min":174,"x_max":1389,"o":"m 521 1215 l 521 694 l 694 694 l 694 868 l 868 868 l 868 1042 l 1042 1042 l 1042 1215 l 1389 1215 l 1389 1042 l 1215 1042 l 1215 868 l 1042 868 l 1042 694 l 868 694 l 868 521 l 1042 521 l 1042 347 l 1215 347 l 1215 174 l 1389 174 l 1389 0 l 868 0 l 868 174 l 694 174 l 694 347 l 521 347 l 521 0 l 174 0 l 174 1215 l 521 1215 z "},"l":{"ha":1389,"x_min":174,"x_max":1389,"o":"m 521 1215 l 521 174 l 1389 174 l 1389 0 l 174 0 l 174 1215 l 521 1215 z "},"m":{"ha":1389,"x_min":174,"x_max":1389,"o":"m 521 1215 l 521 1042 l 694 1042 l 694 868 l 868 868 l 868 1042 l 1042 1042 l 1042 1215 l 1389 1215 l 1389 0 l 1042 0 l 1042 521 l 868 521 l 868 347 l 694 347 l 694 521 l 521 521 l 521 0 l 174 0 l 174 1215 l 521 1215 z "},"n":{"ha":1389,"x_min":174,"x_max":1389,"o":"m 521 1215 l 521 1042 l 694 1042 l 694 868 l 868 868 l 868 694 l 1042 694 l 1042 1215 l 1389 1215 l 1389 0 l 1042 0 l 1042 174 l 868 174 l 868 347 l 694 347 l 694 521 l 521 521 l 521 0 l 174 0 l 174 1215 l 521 1215 z "},"o":{"ha":1389,"x_min":174,"x_max":1389,"o":"m 174 174 l 174 1042 l 347 1042 l 347 1215 l 1215 1215 l 1215 1042 l 1389 1042 l 1389 174 l 1215 174 l 1215 0 l 347 0 l 347 174 l 174 174 m 521 174 l 1042 174 l 1042 1042 l 521 1042 l 521 174 z "},"p":{"ha":1389,"x_min":174,"x_max":1389,"o":"m 1215 1215 l 1215 1042 l 1389 1042 l 1389 521 l 1215 521 l 1215 347 l 521 347 l 521 0 l 174 0 l 174 1215 l 1215 1215 m 521 521 l 1042 521 l 1042 1042 l 521 1042 l 521 521 z "},"q":{"ha":1389,"x_min":174,"x_max":1389,"o":"m 1042 174 l 1042 0 l 347 0 l 347 174 l 174 174 l 174 1042 l 347 1042 l 347 1215 l 1215 1215 l 1215 1042 l 1389 1042 l 1389 347 l 1215 347 l 1215 174 l 1042 174 m 521 174 l 868 174 l 868 347 l 694 347 l 694 521 l 1042 521 l 1042 1042 l 521 1042 l 521 174 m 1389 174 l 1389 0 l 1215 0 l 1215 174 l 1389 174 z "},"r":{"ha":1389,"x_min":174,"x_max":1389,"o":"m 1215 1215 l 1215 1042 l 1389 1042 l 1389 521 l 1042 521 l 1042 347 l 1215 347 l 1215 174 l 1389 174 l 1389 0 l 868 0 l 868 174 l 694 174 l 694 347 l 521 347 l 521 0 l 174 0 l 174 1215 l 1215 1215 m 521 521 l 868 521 l 868 694 l 1042 694 l 1042 1042 l 521 1042 l 521 521 z "},"s":{"ha":1389,"x_min":174,"x_max":1389,"o":"m 174 174 l 174 347 l 521 347 l 521 174 l 1042 174 l 1042 521 l 347 521 l 347 694 l 174 694 l 174 1042 l 347 1042 l 347 1215 l 1042 1215 l 1042 1042 l 1215 1042 l 1215 868 l 868 868 l 868 1042 l 521 1042 l 521 694 l 1215 694 l 1215 521 l 1389 521 l 1389 174 l 1215 174 l 1215 0 l 347 0 l 347 174 l 174 174 z "},"t":{"ha":1389,"x_min":347,"x_max":1389,"o":"m 347 1042 l 347 1215 l 1389 1215 l 1389 1042 l 1042 1042 l 1042 0 l 694 0 l 694 1042 l 347 1042 z "},"u":{"ha":1389,"x_min":174,"x_max":1389,"o":"m 174 174 l 174 1215 l 521 1215 l 521 174 l 1042 174 l 1042 1215 l 1389 1215 l 1389 174 l 1215 174 l 1215 0 l 347 0 l 347 174 l 174 174 z "},"v":{"ha":1389,"x_min":174,"x_max":1389,"o":"m 521 174 l 521 347 l 347 347 l 347 521 l 174 521 l 174 1215 l 521 1215 l 521 694 l 694 694 l 694 521 l 868 521 l 868 694 l 1042 694 l 1042 1215 l 1389 1215 l 1389 521 l 1215 521 l 1215 347 l 1042 347 l 1042 174 l 868 174 l 868 0 l 694 0 l 694 174 l 521 174 z "},"w":{"ha":1389,"x_min":174,"x_max":1389,"o":"m 521 1215 l 521 694 l 694 694 l 694 868 l 868 868 l 868 694 l 1042 694 l 1042 1215 l 1389 1215 l 1389 0 l 1042 0 l 1042 174 l 868 174 l 868 347 l 694 347 l 694 174 l 521 174 l 521 0 l 174 0 l 174 1215 l 521 1215 z "},"x":{"ha":1389,"x_min":174,"x_max":1389,"o":"m 347 347 l 347 521 l 521 521 l 521 694 l 347 694 l 347 868 l 174 868 l 174 1215 l 521 1215 l 521 1042 l 694 1042 l 694 868 l 868 868 l 868 1042 l 1042 1042 l 1042 1215 l 1389 1215 l 1389 868 l 1215 868 l 1215 694 l 1042 694 l 1042 521 l 1215 521 l 1215 347 l 1389 347 l 1389 0 l 1042 0 l 1042 174 l 868 174 l 868 347 l 694 347 l 694 174 l 521 174 l 521 0 l 174 0 l 174 347 l 347 347 z "},"y":{"ha":1389,"x_min":347,"x_max":1389,"o":"m 521 521 l 521 694 l 347 694 l 347 1215 l 694 1215 l 694 694 l 1042 694 l 1042 1215 l 1389 1215 l 1389 694 l 1215 694 l 1215 521 l 1042 521 l 1042 0 l 694 0 l 694 521 l 521 521 z "},"z":{"ha":1389,"x_min":174,"x_max":1389,"o":"m 347 347 l 347 521 l 521 521 l 521 694 l 694 694 l 694 868 l 868 868 l 868 1042 l 174 1042 l 174 1215 l 1389 1215 l 1389 868 l 1215 868 l 1215 694 l 1042 694 l 1042 521 l 868 521 l 868 347 l 694 347 l 694 174 l 1389 174 l 1389 0 l 174 0 l 174 347 l 347 347 z "},"¦":{"ha":1389,"x_min":521,"x_max":868,"o":"m 868 521 l 868 0 l 521 0 l 521 521 l 868 521 m 868 1215 l 868 694 l 521 694 l 521 1215 l 868 1215 z "},"^":{"ha":1389,"x_min":347,"x_max":1215,"o":"m 694 955 l 694 1128 l 694 1128 l 868 1128 l 868 955 l 694 955 m 1042 955 l 1042 781 l 1215 781 l 1215 608 l 1042 608 l 1042 781 l 868 781 l 868 955 l 1042 955 m 521 781 l 521 608 l 347 608 l 347 781 l 521 781 m 694 781 l 694 955 l 521 955 l 521 781 l 694 781 z "},"`":{"ha":1389,"x_min":694,"x_max":1215,"o":"m 694 955 l 694 1128 l 694 1128 l 868 1128 l 868 955 l 694 955 m 1042 955 l 1042 781 l 1215 781 l 1215 608 l 1042 608 l 1042 781 l 868 781 l 868 955 l 1042 955 z "},"|":{"ha":1389,"x_min":521,"x_max":868,"o":"m 868 1215 l 868 0 l 521 0 l 521 1215 l 868 1215 z "},"÷":{"ha":1389,"x_min":347,"x_max":1215,"o":"m 347 521 l 347 694 l 1215 694 l 1215 521 l 347 521 m 868 868 l 694 868 l 694 1042 l 868 1042 l 868 868 m 694 174 l 694 347 l 868 347 l 868 174 l 694 174 z "},"@":{"ha":1389,"x_min":174,"x_max":1389,"o":"m 868 868 l 1042 868 l 1042 1042 l 694 1042 l 694 868 l 521 868 l 521 347 l 694 347 l 694 174 l 1042 174 l 1042 347 l 1389 347 l 1389 174 l 1215 174 l 1215 0 l 521 0 l 521 174 l 347 174 l 347 347 l 174 347 l 174 868 l 347 868 l 347 1042 l 521 1042 l 521 1215 l 1215 1215 l 1215 1042 l 1389 1042 l 1389 521 l 868 521 l 868 868 z "},"{":{"ha":1389,"x_min":347,"x_max":1215,"o":"m 347 694 l 521 694 l 521 1215 l 1215 1215 l 1215 1042 l 868 1042 l 868 174 l 1215 174 l 1215 0 l 521 0 l 521 521 l 347 521 l 347 694 z "},"}":{"ha":1389,"x_min":347,"x_max":1215,"o":"m 694 174 l 694 1042 l 347 1042 l 347 1215 l 1042 1215 l 1042 694 l 1215 694 l 1215 521 l 1042 521 l 1042 0 l 347 0 l 347 174 l 694 174 z "},"¯":{"ha":1389,"x_min":137,"x_max":1253,"o":"m 613 454 l 613 1289 l 735 1289 l 735 454 l 613 454 m 524 1289 l 589 1289 q 587 1048 589 1143 q 577 888 584 953 q 555 780 569 823 q 519 693 541 736 q 456 609 496 650 q 365 535 415 569 q 260 480 315 502 q 152 454 205 459 l 152 582 q 304 641 233 595 q 440 783 375 687 q 489 904 472 830 q 514 1054 506 978 q 524 1194 522 1130 q 524 1289 525 1259 m 825 1289 q 825 1194 823 1259 q 834 1054 826 1130 q 859 904 842 978 q 909 783 877 830 q 1045 641 974 687 q 1196 582 1115 595 l 1196 454 q 1087 480 1143 459 q 982 535 1032 502 q 891 609 932 569 q 829 693 851 650 q 794 780 807 736 q 772 888 780 823 q 762 1048 764 953 q 760 1289 760 1143 l 825 1289 m 1139 1 l 1139 378 l 1195 378 l 1195 1 l 1139 1 m 593 378 l 593 321 l 514 321 l 514 1 l 457 1 l 457 321 l 379 321 l 379 378 l 593 378 m 926 304 l 926 1 l 870 1 l 870 321 q 883 364 870 350 q 926 378 896 378 l 987 378 q 1021 371 1004 378 q 1054 351 1039 365 q 1079 316 1069 337 q 1088 268 1088 295 q 1081 221 1088 239 q 1064 191 1073 203 q 1044 172 1055 179 q 1024 161 1033 165 q 1015 148 1014 153 q 1020 133 1016 142 l 1108 1 l 1042 1 l 955 132 q 947 169 943 152 q 964 194 951 187 q 979 201 968 197 q 1003 213 991 205 q 1023 234 1014 221 q 1032 265 1032 246 q 1014 310 1032 299 q 981 321 997 321 l 943 321 q 926 304 926 321 m 839 1 l 781 1 l 755 95 l 642 95 l 615 1 l 557 1 l 652 341 q 673 373 660 367 q 699 378 687 378 q 723 373 710 378 q 744 341 736 367 l 839 1 m 739 150 l 699 294 l 657 150 l 739 150 m 420 1 l 360 1 l 334 95 l 221 95 l 195 1 l 137 1 l 233 341 q 253 373 240 367 q 278 378 266 378 q 303 373 289 378 q 324 341 317 367 l 420 1 m 320 150 l 278 294 l 237 150 l 320 150 m 1250 425 q 1253 414 1253 422 q 1250 402 1253 411 q 1241 394 1247 398 q 1230 391 1236 391 q 1218 394 1227 391 l 1209 402 q 1207 414 1207 411 q 1209 425 1207 420 q 1218 434 1214 433 q 1230 437 1221 437 q 1241 434 1238 437 q 1250 425 1247 431 m 1247 404 q 1250 414 1250 409 q 1247 424 1250 418 q 1240 431 1244 428 q 1230 434 1234 434 q 1220 431 1225 434 q 1212 424 1215 428 q 1209 414 1209 418 q 1212 404 1209 409 l 1220 396 q 1230 395 1223 395 q 1240 396 1237 395 q 1244 400 1243 399 q 1247 404 1246 401 m 1241 399 l 1236 399 l 1233 407 l 1231 409 q 1225 412 1228 412 l 1225 399 l 1221 399 l 1221 428 l 1236 428 q 1238 421 1238 425 q 1237 417 1238 418 q 1233 412 1237 414 q 1237 408 1234 412 l 1241 399 m 1228 415 q 1233 417 1233 415 q 1234 421 1234 418 l 1234 422 q 1233 424 1234 424 q 1228 425 1231 425 l 1225 425 l 1225 415 l 1228 415 z "},"°":{"ha":1389,"x_min":152,"x_max":1196,"o":"m 613 1 l 613 836 l 735 836 l 735 1 l 613 1 m 524 836 l 589 836 q 587 595 589 690 q 577 435 584 501 q 555 327 569 370 q 519 240 541 284 q 456 156 496 197 q 365 82 415 116 q 260 27 315 49 q 152 1 205 6 l 152 129 q 304 188 233 142 q 440 330 375 234 q 489 451 472 378 q 514 601 506 525 q 524 741 522 677 q 524 836 525 806 m 825 836 q 825 741 823 806 q 834 601 826 677 q 859 451 842 525 q 909 330 877 378 q 1045 188 974 234 q 1196 129 1115 142 l 1196 1 q 1087 27 1143 6 q 982 82 1032 49 q 891 156 932 116 q 829 240 851 197 q 794 327 807 284 q 772 435 780 370 q 762 595 764 501 q 760 836 760 690 l 825 836 l 825 836 z "},"±":{"ha":1389,"x_min":137,"x_max":1253,"o":"m 1139 1 l 1139 378 l 1195 378 l 1195 1 l 1139 1 m 593 378 l 593 321 l 514 321 l 514 1 l 457 1 l 457 321 l 379 321 l 379 378 l 593 378 m 926 304 l 926 1 l 870 1 l 870 321 q 883 364 870 350 q 926 378 896 378 l 987 378 q 1021 371 1004 378 q 1054 351 1039 365 q 1079 316 1069 337 q 1088 268 1088 295 q 1081 221 1088 239 q 1064 191 1073 203 q 1044 172 1055 179 q 1024 161 1033 165 q 1015 148 1014 153 q 1020 133 1016 142 l 1108 1 l 1042 1 l 955 132 q 947 169 943 152 q 964 194 951 187 q 979 201 968 197 q 1003 213 991 205 q 1023 234 1014 221 q 1032 265 1032 246 q 1014 310 1032 299 q 981 321 997 321 l 943 321 q 926 304 926 321 m 839 1 l 781 1 l 755 95 l 642 95 l 615 1 l 557 1 l 652 341 q 673 373 660 367 q 699 378 687 378 q 723 373 710 378 q 744 341 736 367 l 839 1 m 739 150 l 699 294 l 657 150 l 739 150 m 420 1 l 360 1 l 334 95 l 221 95 l 195 1 l 137 1 l 233 341 q 253 373 240 367 q 278 378 266 378 q 303 373 289 378 q 324 341 317 367 l 420 1 m 320 150 l 278 294 l 237 150 l 320 150 m 1250 425 q 1253 414 1253 422 q 1250 402 1253 411 q 1241 394 1247 398 q 1230 391 1236 391 q 1218 394 1227 391 l 1209 402 q 1207 414 1207 411 q 1209 425 1207 420 q 1218 434 1214 433 q 1230 437 1221 437 q 1241 434 1238 437 q 1250 425 1247 431 m 1247 404 q 1250 414 1250 409 q 1247 424 1250 418 q 1240 431 1244 428 q 1230 434 1234 434 q 1220 431 1225 434 q 1212 424 1215 428 q 1209 414 1209 418 q 1212 404 1209 409 l 1220 396 q 1230 395 1223 395 q 1240 396 1237 395 q 1244 400 1243 399 q 1247 404 1246 401 m 1241 399 l 1236 399 l 1233 407 l 1231 409 q 1225 412 1228 412 l 1225 399 l 1221 399 l 1221 428 l 1236 428 q 1238 421 1238 425 q 1237 417 1238 418 q 1233 412 1237 414 q 1237 408 1234 412 l 1241 399 m 1228 415 q 1233 417 1233 415 q 1234 421 1234 418 l 1234 422 q 1233 424 1234 424 q 1228 425 1231 425 l 1225 425 l 1225 415 l 1228 415 z "},"·":{"ha":1389,"x_min":0,"x_max":1389,"o":"m 482 130 l 652 130 l 652 71 l 472 71 q 437 85 451 71 q 422 120 422 100 l 422 205 l 615 205 l 615 146 l 482 146 l 482 130 m 353 308 q 386 387 353 354 q 464 420 418 420 l 652 420 l 652 360 l 470 360 q 429 343 446 360 q 412 301 412 326 l 412 120 q 429 79 412 95 q 470 62 446 62 l 652 62 l 652 1 l 464 1 q 386 35 418 1 q 353 114 353 68 l 353 308 m 422 302 q 437 336 422 323 q 472 350 451 350 l 652 350 l 652 291 l 482 291 l 482 275 l 615 275 l 615 217 l 422 217 l 422 302 m 806 291 l 806 132 l 855 132 l 855 146 l 820 146 l 820 205 l 914 205 l 914 71 l 794 71 q 760 85 774 71 q 747 120 747 100 l 747 301 q 760 336 747 321 q 794 350 774 350 l 984 350 l 984 291 l 806 291 m 1389 1 l 1163 1 l 1163 62 l 1305 62 l 1207 360 q 1198 372 1204 367 q 1185 376 1192 376 q 1160 360 1168 376 l 1045 1 l 788 1 q 710 35 742 1 q 679 114 679 68 l 679 308 q 710 387 679 354 q 788 420 742 420 l 985 420 l 985 360 l 794 360 q 753 343 770 360 q 736 301 736 326 l 736 120 q 753 79 736 95 q 794 62 770 62 l 924 62 l 924 216 l 822 216 l 822 275 l 985 275 l 985 14 l 1098 370 q 1131 412 1108 395 q 1185 430 1155 430 q 1238 412 1214 430 q 1269 367 1262 395 l 1389 1 m 1185 197 l 1121 1 l 1056 1 l 1172 357 q 1185 365 1175 365 q 1198 357 1195 365 l 1291 71 l 1165 71 l 1165 130 l 1207 130 l 1185 197 m 1314 404 l 1302 404 l 1302 408 l 1327 408 l 1327 404 l 1317 404 l 1317 378 l 1314 378 l 1314 404 m 1334 378 l 1331 378 l 1331 408 l 1337 408 l 1345 383 l 1353 408 l 1359 408 l 1359 378 l 1356 378 l 1356 404 l 1347 378 l 1343 378 l 1334 404 l 1334 378 m 187 275 q 239 264 214 275 q 284 234 265 253 q 313 190 302 216 q 324 137 324 165 q 313 84 324 109 q 284 41 302 59 q 239 12 265 23 q 187 1 214 1 l 1 1 l 1 62 l 187 62 q 241 82 218 61 q 263 137 263 104 q 241 192 263 169 q 187 216 218 216 l 139 216 q 90 235 110 216 q 71 282 71 255 q 90 331 71 311 q 139 350 110 350 l 318 350 l 318 291 l 130 291 l 130 275 l 187 275 m 137 146 q 83 157 109 146 q 40 186 58 168 q 11 229 22 204 q 0 282 0 253 q 40 380 0 340 q 137 420 80 420 l 318 420 l 318 360 l 137 360 q 83 338 106 360 q 61 282 61 315 q 83 228 61 250 q 137 205 106 205 l 185 205 q 233 186 213 205 q 253 139 253 166 q 233 90 253 110 q 185 71 213 71 l 1 71 l 1 132 l 192 132 l 192 146 l 137 146 z "},"¹":{"ha":1389,"x_min":30,"x_max":1348,"o":"m 1348 486 l 1251 137 l 693 0 l 139 140 l 30 486 l 1348 486 m 693 375 l 1211 464 l 190 464 l 693 375 m 527 208 l 538 242 l 548 205 l 527 208 m 1046 216 q 1010 229 1024 216 q 995 263 995 243 q 1010 299 995 285 q 1046 314 1024 314 q 1079 299 1065 314 q 1092 263 1092 285 q 1079 229 1092 243 q 1046 216 1065 216 m 725 97 l 725 288 l 668 288 l 668 97 l 725 97 m 326 295 l 326 179 l 379 165 l 379 288 l 441 278 l 441 331 l 265 360 l 265 307 l 326 295 m 761 295 l 758 242 l 819 252 l 819 119 l 880 133 l 880 266 l 927 271 l 927 324 l 761 295 m 577 307 l 506 317 l 444 152 l 499 137 l 506 165 l 560 155 l 570 119 l 628 109 l 577 307 m 1042 363 q 971 335 1001 363 q 942 263 942 307 q 971 193 942 221 q 1042 165 1001 165 q 1113 193 1084 165 q 1143 263 1143 221 q 1113 335 1143 307 q 1042 363 1084 363 m 693 331 l 1298 443 l 1223 172 l 693 46 l 168 172 l 88 443 l 693 331 m 67 464 l 153 162 l 693 25 l 1237 159 l 1319 464 l 693 353 l 67 464 z "},"³":{"ha":1389,"x_min":1,"x_max":1359,"o":"m 975 263 q 1044 247 1013 263 q 1091 201 1075 230 l 1091 256 l 1207 256 l 1214 227 l 1224 253 l 1340 253 l 1340 210 q 1330 201 1330 208 q 1336 158 1332 182 q 1344 111 1340 133 q 1352 74 1348 90 q 1359 56 1356 58 l 1359 10 l 1241 10 l 1241 58 l 1173 58 l 1173 10 l 1069 10 l 1069 42 q 1027 16 1052 26 q 975 6 1003 6 q 914 20 942 6 q 867 58 885 35 l 867 13 l 848 10 q 828 8 838 9 q 810 7 819 7 q 693 39 739 7 q 642 119 647 71 q 595 90 616 98 q 558 72 574 81 q 569 61 558 61 l 569 10 l 178 10 q 51 43 100 10 q 1 133 1 77 q 11 181 3 158 q 34 222 19 204 q 72 251 49 240 q 129 262 95 262 q 173 255 153 262 q 207 237 192 247 q 230 214 221 226 q 243 194 239 203 l 178 126 l 136 159 l 143 177 q 132 184 143 184 q 114 177 124 184 q 103 143 103 171 q 109 115 103 126 q 124 98 116 104 q 142 89 133 91 q 156 87 150 87 q 166 90 161 87 q 179 107 178 95 l 229 107 l 229 67 q 233 71 229 67 l 302 256 l 385 256 l 460 58 q 459 101 457 75 q 461 150 460 126 q 459 191 462 174 q 447 208 457 208 l 447 259 l 577 259 q 598 256 586 259 q 621 247 609 253 q 644 231 634 242 q 660 205 654 220 q 702 244 676 226 q 768 262 728 262 q 833 245 810 262 q 870 213 855 227 q 975 263 909 263 m 334 187 l 353 133 l 315 133 l 334 187 m 534 203 l 548 203 q 576 198 561 203 q 590 177 590 194 q 582 150 590 161 q 561 133 573 139 q 534 123 548 126 l 534 203 m 917 133 q 935 186 917 163 q 975 208 952 208 q 1019 186 1001 208 q 1036 133 1036 163 q 1019 82 1036 104 q 975 61 1001 61 q 935 82 952 61 q 917 133 917 104 m 175 158 l 214 195 q 194 217 205 207 q 167 233 182 226 q 132 240 152 240 q 81 231 101 240 q 48 205 61 221 q 31 170 36 190 q 26 129 26 150 q 64 61 26 91 q 168 32 101 32 q 185 33 177 32 q 204 35 194 33 l 204 85 l 190 85 q 184 75 190 87 q 163 64 179 64 q 143 66 156 64 q 115 77 129 68 q 91 101 101 85 q 81 145 81 117 q 88 179 81 166 q 103 199 94 192 q 121 207 111 205 q 136 208 130 208 q 136 208 132 208 q 148 206 140 208 q 161 197 155 204 q 168 178 168 191 q 165 166 168 175 l 175 158 m 815 158 l 852 195 q 832 217 843 207 q 805 233 820 226 q 770 240 790 240 q 689 207 715 240 q 664 133 664 174 q 701 63 664 94 q 807 32 738 32 q 825 33 816 32 q 843 35 833 33 l 843 85 l 830 85 q 824 75 830 87 q 802 64 817 64 q 781 66 794 64 q 754 77 767 68 q 731 101 741 85 q 720 145 720 117 q 727 179 720 166 q 742 199 734 192 q 760 207 751 205 q 775 208 770 208 q 775 208 771 208 q 787 206 780 208 q 801 197 794 204 q 807 177 807 190 q 804 166 807 172 l 815 158 m 366 100 l 380 64 l 380 61 q 375 48 380 48 l 373 48 l 373 35 l 447 35 l 447 49 q 443 51 444 49 q 440 53 441 52 q 438 56 438 54 q 426 86 437 59 q 402 146 415 113 q 367 231 386 184 l 317 231 l 255 58 q 249 51 252 52 q 240 49 246 51 l 240 35 l 301 35 l 301 49 q 295 51 298 49 q 291 61 291 52 q 299 81 295 65 q 305 100 302 88 l 366 100 m 472 234 l 472 223 l 477 220 q 483 213 480 218 l 483 56 q 480 51 483 54 q 475 49 476 49 l 475 35 l 547 35 l 547 49 q 540 51 543 49 q 534 58 534 54 l 534 90 q 587 109 563 97 q 625 135 608 119 q 642 177 642 152 q 619 223 642 211 q 577 234 596 234 l 472 234 m 1115 231 l 1115 217 q 1121 216 1117 217 q 1126 208 1126 216 q 1121 158 1126 185 q 1112 106 1117 130 q 1101 66 1107 82 q 1092 49 1095 49 l 1091 49 l 1091 35 l 1152 35 l 1152 49 q 1146 51 1149 49 q 1141 56 1141 52 q 1144 76 1141 58 q 1150 114 1147 94 l 1159 169 l 1191 80 l 1227 80 l 1260 169 l 1277 58 q 1264 49 1277 49 l 1264 35 l 1337 35 l 1337 49 q 1334 51 1335 49 q 1332 53 1332 52 q 1330 56 1331 54 q 1326 82 1330 58 q 1318 135 1322 106 q 1306 208 1312 168 q 1315 217 1306 217 l 1315 231 l 1241 231 l 1214 155 l 1191 231 l 1115 231 m 865 133 q 898 59 865 90 q 975 27 930 27 q 1056 59 1023 27 q 1089 133 1089 90 q 1056 211 1089 179 q 975 242 1023 242 q 898 211 930 242 q 865 133 865 179 z "},"´":{"ha":1389,"x_min":140,"x_max":1270,"o":"m 1270 226 q 1218 206 1246 214 q 1170 198 1191 198 q 1063 221 1113 198 q 978 280 1014 243 q 922 365 942 317 q 901 466 901 414 q 922 573 901 524 q 978 658 942 622 q 1063 715 1014 694 q 1170 735 1113 735 q 1218 733 1191 735 q 1270 718 1246 731 l 1270 226 m 1170 777 q 1050 754 1107 777 q 949 692 992 732 q 880 593 906 651 q 855 466 855 535 q 880 344 855 401 q 949 246 906 288 q 1050 180 992 204 q 1170 156 1107 156 q 1218 163 1191 156 q 1270 171 1246 171 l 1270 12 q 1218 3 1246 4 q 1170 1 1191 1 q 999 31 1079 1 q 856 114 919 61 q 753 238 794 166 q 700 394 712 310 q 642 238 684 310 q 538 114 600 166 q 399 31 476 61 q 236 1 321 1 q 183 3 205 1 q 140 12 161 4 l 140 171 q 183 163 161 171 q 236 156 205 156 q 357 180 301 156 q 456 246 414 204 q 522 344 498 288 q 545 466 545 401 q 522 593 545 535 q 456 692 498 651 q 357 754 414 732 q 236 777 301 777 q 183 775 205 777 q 140 758 161 773 l 140 932 q 183 943 161 942 q 236 945 205 945 q 399 912 321 945 q 538 825 476 880 q 642 699 600 771 q 700 548 684 626 q 753 699 712 626 q 856 825 794 771 q 999 912 919 880 q 1170 945 1079 945 q 1218 943 1191 945 q 1270 932 1246 942 l 1270 758 q 1218 775 1246 773 q 1170 777 1191 777 m 505 448 q 477 351 499 396 q 418 271 454 305 q 336 218 382 237 q 236 198 289 198 q 183 206 205 198 q 140 226 161 214 l 140 448 l 505 448 m 140 489 l 140 718 q 183 733 161 731 q 236 735 205 735 q 335 717 289 735 q 415 666 380 699 q 473 589 450 634 q 505 489 496 544 l 140 489 z "},"®":{"ha":1389,"x_min":137,"x_max":1253,"o":"m 613 639 l 613 1476 l 735 1476 l 735 639 l 613 639 m 825 1476 q 824 1457 825 1468 q 823 1431 823 1445 q 827 1327 823 1389 q 839 1199 830 1264 q 864 1071 848 1133 q 909 968 881 1008 q 1045 826 974 872 q 1196 767 1115 780 l 1196 639 q 1087 666 1143 644 q 982 720 1032 687 q 891 794 932 754 q 829 878 851 835 q 794 966 807 922 q 772 1075 780 1010 q 762 1235 764 1140 q 760 1476 760 1330 l 825 1476 m 521 1476 l 589 1476 q 587 1235 589 1330 q 577 1075 584 1140 q 556 966 570 1010 q 521 878 543 922 q 457 794 498 835 q 367 720 417 754 q 261 666 317 687 q 152 639 205 644 l 152 767 q 304 826 233 780 q 440 968 375 872 q 483 1071 467 1008 q 508 1199 499 1133 q 519 1327 516 1264 q 521 1431 521 1389 l 521 1476 m 420 187 l 360 187 l 334 281 l 221 281 l 195 187 l 137 187 l 233 527 q 253 558 240 553 q 278 563 266 563 q 303 558 289 563 q 324 527 317 553 l 420 187 m 839 187 l 781 187 l 755 281 l 642 281 l 615 187 l 557 187 l 652 527 q 673 558 660 553 q 699 563 687 563 q 723 558 710 563 q 744 527 736 553 l 839 187 m 926 489 l 926 187 l 868 187 l 868 506 q 926 563 868 563 l 987 563 q 1021 556 1004 563 q 1054 536 1039 550 q 1079 501 1069 522 q 1088 453 1088 480 q 1076 395 1088 415 q 1051 364 1065 375 q 1026 347 1037 353 q 1014 333 1014 341 q 1020 318 1014 330 l 1108 187 l 1042 187 l 955 317 q 946 347 946 331 q 959 375 946 367 q 989 389 972 382 q 1019 409 1005 396 q 1032 450 1032 421 q 1014 496 1032 485 q 981 506 997 506 l 943 506 q 926 489 926 506 m 593 563 l 593 506 l 514 506 l 514 187 l 457 187 l 457 506 l 379 506 l 379 563 l 593 563 m 1139 187 l 1139 563 l 1195 563 l 1195 187 l 1139 187 m 739 336 l 699 479 l 657 336 l 739 336 m 320 336 l 278 479 l 237 336 l 320 336 m 628 4 l 628 109 l 648 109 l 679 20 l 709 109 l 729 109 l 729 4 l 715 4 l 715 93 l 686 4 l 671 4 l 642 93 l 642 4 l 628 4 m 159 97 q 194 111 174 111 q 225 102 214 111 q 239 77 236 93 l 224 77 q 192 98 220 98 q 170 88 181 98 q 159 55 159 78 q 166 25 159 38 q 194 13 174 13 q 216 20 207 13 q 227 48 224 27 l 194 48 l 194 59 l 240 59 l 240 4 l 231 4 l 227 17 q 191 0 216 0 q 157 15 169 0 q 145 55 145 30 q 159 97 145 81 m 482 4 l 466 4 l 454 35 l 414 35 l 402 4 l 388 4 l 427 109 l 443 109 l 482 4 m 1114 38 q 1156 13 1133 13 q 1183 30 1183 13 q 1160 49 1183 45 l 1146 52 q 1117 78 1117 56 q 1127 102 1117 93 q 1155 111 1137 111 q 1181 103 1169 111 q 1194 78 1194 95 l 1181 78 q 1155 98 1175 98 q 1134 93 1140 98 q 1128 81 1128 88 q 1134 71 1128 74 q 1156 64 1139 68 l 1170 61 q 1196 33 1196 54 q 1183 8 1196 16 q 1155 0 1170 0 q 1114 38 1114 0 m 887 4 l 887 109 l 964 109 l 964 95 l 900 95 l 900 64 l 955 64 l 955 52 l 900 52 l 900 16 l 964 16 l 964 4 l 887 4 m 1250 608 q 1253 599 1253 605 q 1249 585 1253 595 q 1230 576 1246 576 q 1215 579 1224 576 l 1209 587 q 1207 599 1207 596 q 1214 616 1207 611 q 1230 622 1221 622 q 1250 608 1244 622 m 1247 589 q 1250 599 1250 595 q 1244 613 1250 606 q 1230 619 1238 619 q 1216 613 1223 619 q 1209 599 1209 608 q 1212 594 1209 596 q 1215 589 1214 592 l 1220 582 q 1224 579 1221 579 q 1230 580 1227 580 q 1247 589 1243 580 m 450 46 l 434 93 l 418 46 l 450 46 m 1241 584 l 1236 584 l 1231 595 q 1225 598 1228 598 l 1225 584 l 1221 584 l 1221 613 l 1236 613 q 1237 610 1237 612 q 1238 608 1237 608 q 1233 598 1238 599 q 1237 593 1234 598 l 1241 584 m 1228 600 q 1233 603 1233 600 q 1234 608 1234 606 l 1225 608 l 1225 600 l 1228 600 z "},"¶":{"ha":1389,"x_min":145,"x_max":1237,"o":"m 327 833 q 382 854 353 848 q 441 865 411 861 q 498 876 470 870 q 551 898 527 883 q 602 947 582 919 q 636 1008 622 975 q 659 1079 650 1042 q 680 1155 668 1115 l 1003 1155 q 974 1082 987 1120 q 945 1011 961 1045 q 906 951 929 978 q 851 906 884 923 q 792 884 822 891 q 732 871 762 877 q 672 857 702 865 q 616 833 642 849 q 565 786 586 816 q 528 719 544 755 q 500 645 512 683 q 477 574 488 608 l 163 574 q 194 646 179 609 q 226 717 208 683 q 268 781 245 751 q 327 833 292 812 m 531 553 q 586 574 557 567 q 645 584 615 580 q 702 595 674 589 q 755 618 731 602 q 805 665 786 637 q 838 726 825 693 q 862 797 852 760 q 883 872 872 835 l 1205 872 q 1178 801 1191 838 q 1148 731 1165 764 q 1110 670 1131 697 q 1055 625 1088 642 q 995 603 1026 611 q 935 590 965 596 q 875 577 904 584 q 819 553 845 569 q 767 503 788 535 q 729 435 745 472 q 702 361 713 398 q 681 294 690 324 l 367 294 q 398 365 383 328 q 430 435 412 401 q 471 499 447 469 q 531 553 495 530 m 599 169 l 599 35 l 651 169 l 692 169 l 624 10 l 563 10 l 563 137 l 509 9 l 470 9 l 540 169 l 599 169 m 802 169 l 802 9 l 761 9 l 761 41 l 700 41 l 680 9 l 639 9 l 751 169 l 802 169 m 771 143 l 767 143 l 720 71 l 765 71 l 771 143 m 877 169 l 949 169 l 932 54 l 1001 169 l 1075 169 l 1017 9 l 972 9 l 1023 142 l 936 9 l 893 9 l 906 146 l 855 9 l 812 9 l 877 169 m 1089 9 l 1046 9 l 1107 169 l 1147 169 l 1089 9 m 1208 169 q 1228 162 1220 169 q 1237 143 1237 155 q 1228 124 1237 132 q 1208 116 1220 116 q 1186 124 1195 116 q 1178 143 1178 132 q 1186 162 1178 155 q 1208 169 1195 169 m 1208 122 q 1223 128 1215 122 q 1231 143 1231 135 q 1225 158 1231 150 q 1208 165 1220 165 q 1190 158 1196 165 q 1183 143 1183 150 q 1191 128 1183 135 q 1208 122 1198 122 m 1217 143 q 1220 135 1220 140 q 1223 129 1221 129 l 1215 129 q 1213 135 1212 129 q 1207 140 1214 140 l 1202 140 l 1202 129 l 1195 129 l 1195 159 l 1209 159 q 1221 146 1221 159 q 1217 143 1218 143 m 1208 145 q 1214 149 1214 145 q 1212 153 1214 153 q 1208 153 1211 153 l 1202 153 l 1202 145 l 1208 145 m 268 169 l 234 98 l 317 169 l 375 169 l 284 94 l 295 9 l 243 9 l 233 93 l 190 9 l 145 9 l 224 169 l 268 169 m 433 172 q 473 159 453 172 q 493 127 493 146 l 493 122 q 445 28 473 52 q 379 4 417 4 q 340 12 362 4 q 318 41 318 19 q 328 87 318 64 q 355 129 339 110 q 392 159 372 148 q 433 172 412 171 m 425 142 q 405 132 417 142 q 384 109 394 123 q 368 80 375 95 q 362 51 362 64 q 370 37 362 42 q 386 32 379 32 q 407 40 395 32 q 428 61 418 48 q 445 90 438 74 q 451 123 451 106 q 443 137 451 133 q 425 142 435 142 z "},"¾":{"ha":1389,"x_min":0,"x_max":1389,"o":"m 1176 0 q 1136 20 1147 7 l 1124 39 l 1121 51 l 1121 137 q 1139 179 1121 158 l 1157 191 l 1178 195 l 1332 195 q 1353 190 1345 194 q 1373 177 1361 185 l 1385 156 l 1389 145 l 1389 54 q 1383 35 1386 42 q 1369 17 1380 29 l 1350 4 l 1338 0 l 1176 0 m 516 0 l 516 195 l 793 195 q 809 190 804 192 q 826 177 815 187 l 839 155 l 842 145 l 842 0 l 784 0 l 784 145 l 709 145 l 709 0 l 650 0 l 650 145 l 576 145 l 576 0 l 516 0 m 315 0 q 292 7 301 3 q 273 20 284 10 l 263 38 l 259 51 q 259 61 259 54 q 263 80 260 71 q 278 100 266 88 l 297 113 l 310 116 l 437 116 l 437 145 l 278 145 l 278 195 l 443 195 q 465 187 457 192 q 485 172 473 182 l 493 155 q 496 139 496 146 l 496 0 l 315 0 m 916 0 q 895 7 900 4 q 880 20 890 10 l 867 41 q 864 52 864 45 l 864 137 q 868 158 864 149 q 881 178 872 166 l 903 191 l 913 194 q 922 195 920 195 l 1101 195 l 1101 145 l 923 145 l 923 51 l 1101 51 l 1101 0 l 916 0 m 0 0 l 0 195 l 182 195 q 209 188 201 192 q 223 177 217 184 l 233 162 q 237 148 237 155 l 237 0 l 179 0 l 179 145 l 59 145 l 59 0 l 0 0 m 1330 51 l 1330 145 l 1179 145 l 1179 51 l 1330 51 m 437 51 l 437 80 l 318 80 l 318 51 l 437 51 z "},"¸":{"ha":1389,"x_min":10,"x_max":1383,"o":"m 20 152 q 16 162 19 155 q 13 172 13 169 q 12 177 12 172 q 10 179 12 178 l 10 286 q 21 316 10 302 q 47 341 32 330 q 80 357 62 352 q 111 363 98 363 l 586 363 l 731 231 l 731 360 l 1033 360 l 1033 271 l 1036 271 l 1144 360 l 1382 360 l 1382 357 l 1169 181 l 1376 10 q 1383 1 1383 6 l 1146 1 l 1033 93 l 1033 1 l 754 1 l 615 127 l 608 130 l 608 1 l 433 1 l 433 14 q 414 7 425 12 q 392 1 402 1 l 10 1 l 10 152 l 20 152 m 26 33 q 32 24 26 27 q 42 20 38 20 l 391 20 q 423 31 407 20 q 451 51 440 42 l 451 20 l 593 20 l 593 172 l 762 20 l 1017 20 l 1017 130 l 1021 130 l 1155 20 l 1335 20 l 1155 169 q 1147 175 1152 172 q 1143 182 1143 178 q 1144 185 1143 184 l 1334 341 l 1155 341 l 1017 229 l 1017 341 l 749 341 l 749 187 l 580 341 l 97 341 q 75 335 87 341 q 51 318 62 328 q 33 296 41 308 q 26 273 26 284 l 26 195 q 39 162 26 177 q 65 137 52 148 l 65 133 l 26 133 l 26 33 m 340 117 l 343 120 q 344 122 344 122 q 346 124 344 123 q 346 127 346 126 q 347 130 347 129 q 343 137 347 133 l 340 140 q 337 142 339 142 l 98 142 q 82 147 91 142 q 64 160 72 152 q 51 177 56 168 q 45 195 45 187 l 45 273 q 66 310 45 294 q 104 326 87 326 l 447 326 l 447 246 l 152 246 q 147 242 149 246 q 143 234 145 237 l 143 231 q 148 226 146 229 q 152 223 150 223 l 385 223 q 426 205 405 223 q 447 166 447 187 l 447 90 q 429 56 447 74 q 395 38 411 38 l 45 38 l 45 117 l 340 117 m 573 326 l 768 148 l 768 326 l 872 326 l 872 38 l 767 38 l 571 214 l 571 38 l 470 38 l 470 326 l 573 326 m 998 326 l 998 192 l 1162 326 l 1283 326 l 1283 321 l 1114 181 l 1280 43 q 1283 38 1283 41 l 1159 38 l 998 169 l 998 38 l 894 38 l 894 326 l 998 326 z "},"À":{"ha":1389,"x_min":6,"x_max":1382,"o":"m 226 55 q 236 114 226 88 q 260 171 246 140 q 237 148 253 163 q 201 114 220 132 q 166 79 182 95 q 142 55 149 62 q 102 20 126 39 q 51 1 78 1 q 53 10 51 7 q 58 17 55 13 q 98 68 77 41 q 137 125 119 95 q 169 186 156 155 q 181 247 181 217 l 181 268 q 175 279 178 273 q 165 286 172 284 l 150 286 q 105 274 129 286 q 61 242 81 262 q 29 200 42 223 q 16 155 16 177 q 21 135 16 148 q 38 122 26 122 q 73 137 58 122 q 98 175 88 153 q 114 220 109 197 q 122 259 120 243 l 123 260 q 126 262 124 260 l 130 258 q 132 253 132 255 q 135 234 135 242 q 135 213 135 227 q 113 141 135 174 q 46 109 91 109 q 14 122 23 109 q 6 155 6 135 q 20 209 6 182 q 55 257 33 236 q 104 291 77 278 q 159 304 132 304 q 212 282 190 304 q 234 230 234 260 q 224 183 234 205 q 200 140 214 161 q 169 101 185 120 q 137 68 152 82 q 242 173 192 111 q 331 291 292 234 q 339 300 334 298 q 349 302 344 302 l 349 289 q 335 252 344 279 q 315 196 326 226 q 295 140 304 166 q 282 103 286 113 q 280 94 282 101 q 278 84 278 87 l 278 81 q 286 95 279 85 q 299 116 292 106 q 312 137 305 127 q 321 152 318 148 q 336 173 326 158 q 361 203 347 188 q 388 231 375 218 q 409 243 402 243 l 411 243 q 412 242 411 242 l 414 240 l 414 237 q 361 184 385 211 q 318 124 337 158 q 306 101 315 117 q 286 65 297 84 q 268 29 276 46 q 255 4 259 12 q 245 -1 253 -1 q 235 6 239 -1 q 229 23 231 13 q 226 43 227 33 q 226 55 226 52 m 748 54 q 718 21 731 38 q 679 4 705 4 q 659 11 663 4 q 655 33 655 17 q 657 55 655 46 q 664 78 658 64 q 632 44 650 67 q 600 9 613 22 q 590 4 595 4 q 577 3 584 3 q 548 30 548 3 q 553 59 548 46 q 561 87 557 71 q 542 64 551 78 q 522 37 532 51 q 498 14 511 23 q 470 4 486 4 q 454 5 459 4 q 441 14 448 6 l 441 29 q 446 59 441 45 q 459 88 451 74 q 439 67 448 81 q 418 38 430 52 q 394 14 407 25 q 365 4 380 4 q 351 7 357 4 q 341 17 344 9 l 341 33 q 344 54 341 45 q 349 75 346 64 q 343 70 347 74 q 337 65 339 67 l 334 65 q 328 66 331 65 q 326 69 326 67 q 334 83 326 71 q 354 109 343 95 q 375 134 365 123 q 391 145 386 145 l 434 145 q 431 133 434 137 q 423 119 430 130 q 409 94 417 107 q 396 70 402 81 q 388 55 389 59 q 378 40 385 49 q 372 23 372 30 l 372 20 q 373 17 372 19 q 378 20 376 19 l 411 54 q 428 74 417 59 q 452 104 440 88 q 475 135 464 120 q 490 155 486 149 q 499 169 492 156 q 516 196 506 181 q 535 226 525 211 q 551 250 545 242 q 562 270 558 262 q 570 283 566 278 q 582 290 574 288 q 603 292 589 292 q 608 292 605 292 q 613 291 612 291 l 618 289 l 618 286 q 616 282 618 285 q 613 278 613 279 l 490 51 q 484 36 489 48 q 477 17 479 25 l 483 17 l 505 41 q 522 61 509 45 q 552 98 535 78 q 584 138 569 119 q 606 168 599 158 q 621 190 611 174 q 642 224 631 207 q 662 258 652 242 q 674 281 671 273 l 683 289 l 720 289 l 720 278 l 598 54 q 595 45 598 52 q 590 35 592 38 q 586 25 587 29 q 584 17 584 20 l 587 14 q 608 35 592 20 q 628 55 624 51 q 639 69 629 58 q 658 93 648 81 q 676 116 667 106 q 687 130 684 127 q 707 145 699 142 q 731 148 715 148 l 744 148 q 747 140 747 146 l 747 135 l 690 32 q 688 25 687 25 q 689 17 689 25 q 704 26 696 17 q 716 41 712 35 q 725 51 718 42 q 741 71 732 61 q 757 90 749 81 q 767 101 765 98 q 804 134 783 117 q 848 150 825 150 q 872 143 861 150 q 887 135 884 135 q 896 141 891 135 q 910 148 900 148 l 919 148 q 930 146 920 146 q 938 145 935 146 l 938 133 l 885 35 l 880 17 l 883 17 q 917 49 901 30 q 946 84 932 68 q 976 124 959 101 q 1017 148 992 148 l 1027 148 q 1033 143 1030 146 q 1036 135 1036 139 l 1036 91 q 1061 118 1049 103 q 1085 145 1073 133 q 1094 150 1091 149 q 1104 150 1098 150 q 1129 129 1127 150 q 1130 91 1131 109 l 1179 142 q 1199 150 1188 150 q 1215 145 1208 150 q 1225 133 1223 140 l 1225 119 q 1212 67 1225 91 q 1186 22 1198 43 l 1186 12 q 1191 14 1188 13 q 1195 17 1194 16 q 1215 38 1202 25 q 1230 54 1228 51 l 1330 181 q 1341 184 1332 184 q 1337 170 1341 175 q 1332 158 1332 165 l 1332 155 l 1356 88 q 1359 55 1361 74 l 1376 72 l 1382 72 l 1382 62 q 1374 52 1379 58 q 1363 38 1366 41 q 1335 13 1351 25 q 1299 1 1319 1 q 1266 10 1282 1 q 1250 39 1250 19 q 1256 55 1250 48 q 1272 62 1262 62 q 1284 57 1279 62 q 1289 45 1289 52 q 1283 34 1289 38 q 1276 25 1276 30 q 1279 17 1276 20 q 1309 61 1301 33 q 1318 114 1318 90 l 1318 139 l 1309 130 l 1228 29 q 1208 9 1220 17 q 1183 1 1196 1 q 1167 5 1175 1 q 1156 17 1159 9 l 1156 35 q 1168 85 1156 62 q 1195 130 1181 109 l 1195 135 q 1182 127 1185 132 l 1089 4 l 1042 4 l 1042 14 l 1094 122 l 1094 130 q 1084 124 1089 129 q 1076 117 1079 120 q 1064 101 1073 113 q 1045 75 1055 88 q 1025 48 1034 61 q 1013 32 1016 36 q 1003 19 1010 29 q 995 7 997 9 q 984 1 991 1 l 943 4 l 943 9 l 1003 124 l 1003 130 q 976 99 991 120 q 943 56 961 78 q 906 18 924 35 q 871 1 888 1 q 850 10 855 1 q 841 35 845 19 q 817 12 830 22 q 787 1 803 1 q 756 17 762 1 q 748 54 749 33 m 784 22 q 791 12 784 12 q 815 25 802 12 q 842 56 829 38 q 864 92 855 74 q 872 120 872 110 l 872 130 q 864 137 868 137 q 841 122 855 137 q 815 88 828 107 q 794 49 803 68 q 784 22 784 30 m 425 216 q 434 236 425 229 q 454 243 443 243 q 465 242 462 243 q 472 234 469 242 l 472 224 q 447 195 472 195 q 432 200 438 195 q 425 216 425 205 m 744 204 q 743 209 744 205 q 742 216 742 213 q 768 243 742 243 q 784 239 781 243 q 787 223 787 234 q 764 195 787 195 q 744 204 751 195 z "},"¿":{"ha":1389,"x_min":1,"x_max":1370,"o":"m 1250 204 q 1267 212 1259 204 q 1276 231 1276 220 q 1267 249 1276 240 q 1250 258 1259 258 q 1230 249 1238 258 q 1223 231 1223 240 q 1230 212 1223 220 q 1250 204 1238 204 m 1218 231 q 1250 260 1218 260 q 1270 252 1262 260 q 1279 231 1279 245 q 1270 209 1279 218 q 1250 200 1262 200 q 1227 209 1236 200 q 1218 231 1218 218 m 1250 231 q 1257 239 1257 231 q 1250 243 1257 243 l 1241 243 l 1241 231 l 1250 231 m 1241 214 l 1236 214 l 1236 249 l 1250 249 q 1262 239 1262 249 q 1259 231 1262 233 q 1254 227 1257 230 l 1266 214 l 1257 214 l 1250 227 l 1241 227 l 1241 214 m 729 130 l 729 120 q 723 104 729 109 q 709 100 716 100 q 697 104 705 100 q 690 120 690 109 l 690 145 l 778 145 q 758 187 778 171 q 709 204 738 204 q 659 187 680 204 q 638 145 638 171 q 659 103 638 120 q 709 87 680 87 q 753 98 735 87 q 778 130 771 110 l 729 130 m 690 161 l 690 184 q 709 191 697 191 q 725 184 720 191 q 728 171 728 177 q 729 161 729 166 l 690 161 m 878 200 q 915 192 896 203 q 935 148 935 181 l 935 91 l 885 91 l 885 161 q 880 173 885 166 q 865 179 875 179 q 849 173 856 179 q 842 161 842 166 l 842 91 l 794 91 l 794 195 l 842 195 l 842 188 q 878 200 861 200 m 490 200 q 506 200 496 201 q 524 192 515 198 q 539 174 532 185 q 545 148 545 163 l 545 91 l 498 91 l 498 161 q 493 173 498 166 q 477 179 488 179 q 461 173 467 179 q 454 161 454 166 l 454 91 l 407 91 l 407 195 l 454 195 l 454 188 q 490 200 470 200 m 1034 145 l 1034 165 q 1029 180 1034 177 q 1019 184 1024 184 q 1006 180 1011 184 q 1001 165 1001 177 l 1001 126 q 1006 109 1001 113 q 1019 104 1011 104 q 1029 109 1024 104 q 1034 126 1034 113 l 1034 145 m 1034 249 l 1084 249 l 1084 91 l 1034 91 l 1034 97 q 1008 89 1023 90 q 982 91 992 88 q 975 96 981 93 q 964 106 969 100 q 953 123 958 113 q 948 148 948 133 q 966 185 948 168 q 1010 200 984 203 q 1034 191 1026 200 l 1034 249 m 1170 204 q 1121 187 1141 204 q 1101 145 1101 171 q 1121 103 1101 120 q 1170 87 1141 87 q 1220 103 1199 87 q 1241 145 1241 120 q 1220 187 1241 171 q 1170 204 1199 204 m 1186 145 l 1186 120 q 1170 100 1186 100 q 1155 104 1162 100 q 1149 120 1149 109 l 1149 165 q 1155 185 1149 179 q 1170 191 1162 191 q 1186 165 1186 191 l 1186 145 m 334 249 l 380 249 l 380 217 l 334 217 l 334 249 m 334 195 l 380 195 l 380 91 l 334 91 l 334 195 m 573 236 l 621 236 l 621 214 l 647 214 l 647 195 l 621 195 l 621 91 l 573 91 l 573 195 l 545 195 l 545 214 l 573 214 l 573 236 m 137 249 l 185 249 l 255 140 l 255 249 l 302 249 l 302 91 l 255 91 l 185 204 l 185 91 l 137 91 l 137 249 m 181 297 q 82 259 119 297 q 45 168 45 221 q 82 80 45 117 q 181 43 119 43 l 1194 43 q 1293 80 1259 43 q 1327 168 1327 117 q 1293 259 1327 221 q 1194 297 1259 297 l 181 297 m 181 0 q 106 14 139 0 q 50 51 74 27 q 14 104 26 74 q 1 168 1 135 q 14 234 1 203 q 50 289 26 265 q 106 326 74 313 q 181 340 139 340 l 1194 340 q 1267 326 1234 340 q 1322 289 1299 313 q 1358 234 1345 265 q 1370 168 1370 203 q 1358 104 1370 135 q 1322 51 1345 74 q 1267 14 1299 27 q 1194 0 1234 0 l 181 0 z "},"½":{"ha":1389,"x_min":13,"x_max":1389,"o":"m 190 163 l 100 74 l 97 74 q 88 75 93 74 q 38 106 64 87 q 13 158 13 126 q 25 195 13 179 q 52 224 36 210 q 101 254 71 242 q 162 273 130 266 q 226 284 194 281 q 282 288 258 288 q 313 286 298 288 q 344 285 328 285 q 349 286 349 285 q 353 291 350 286 l 418 370 l 418 366 l 396 281 l 395 279 q 398 275 395 276 q 433 262 414 269 q 470 243 453 255 q 500 216 488 231 q 512 179 512 201 q 484 122 512 146 q 418 83 456 98 q 341 60 380 68 q 279 52 302 52 l 279 58 l 318 198 l 148 0 l 145 0 l 190 163 m 560 252 l 618 252 q 617 211 618 231 q 616 171 616 191 l 616 162 l 666 252 l 725 252 l 679 93 l 634 93 l 655 169 l 615 93 l 579 93 q 579 127 579 110 q 580 159 580 143 l 580 174 q 579 165 580 171 q 577 156 577 159 q 573 140 576 150 q 567 121 570 130 q 562 104 564 111 q 558 93 560 97 l 514 93 l 560 252 m 742 252 l 791 252 l 745 93 l 696 93 l 742 252 m 809 252 l 883 252 q 911 240 898 252 q 927 214 923 229 l 927 200 q 907 136 927 168 q 879 108 896 117 q 843 95 862 98 q 804 93 825 93 q 764 93 783 93 l 764 98 l 809 252 m 942 252 l 992 252 l 981 169 l 981 166 q 988 182 982 171 q 999 207 994 194 q 1009 231 1004 220 q 1017 247 1014 243 q 1019 249 1019 247 q 1020 252 1019 252 l 1065 252 l 1053 165 l 1092 252 l 1139 252 l 1059 93 l 1013 93 l 1013 109 q 1014 120 1013 110 q 1017 142 1016 130 q 1019 163 1019 153 q 1020 177 1020 174 l 1020 178 l 981 93 l 933 93 l 942 252 m 1173 252 l 1224 252 q 1225 230 1224 246 q 1226 196 1225 214 q 1228 161 1227 178 q 1228 139 1228 145 l 1228 93 l 1181 93 l 1181 113 l 1136 113 l 1126 93 l 1078 93 l 1078 97 l 1173 252 m 1257 152 l 1234 252 l 1288 252 q 1291 231 1289 247 q 1295 211 1293 216 l 1295 208 q 1296 205 1295 207 l 1299 208 l 1331 252 l 1389 252 l 1306 152 l 1288 93 l 1240 93 l 1257 152 m 352 111 q 385 122 365 114 q 423 140 405 129 q 454 165 441 150 q 467 197 467 179 q 459 220 467 208 q 440 240 451 231 q 415 255 428 249 q 392 260 402 260 l 391 260 l 352 116 l 352 111 m 64 175 q 75 145 64 158 q 101 126 85 133 q 104 124 101 124 q 106 123 106 124 l 260 266 l 265 269 l 266 271 l 266 269 l 236 148 l 337 272 l 336 273 l 328 273 q 322 274 326 273 q 317 275 318 275 l 289 275 q 229 271 259 275 q 171 259 200 268 q 139 249 158 256 q 103 231 120 242 q 75 206 87 220 q 64 175 64 192 m 825 133 q 863 150 849 133 q 877 192 877 168 q 870 209 877 204 q 852 214 862 214 l 846 214 l 845 210 l 825 137 l 825 133 m 1157 150 l 1181 150 q 1181 170 1181 155 q 1182 191 1182 185 l 1182 194 l 1157 150 z "},"²":{"ha":1389,"x_min":13,"x_max":1385,"o":"m 838 23 l 896 139 q 876 128 885 132 q 854 124 867 124 l 839 124 q 827 135 830 127 q 817 146 823 142 q 790 124 806 135 q 755 114 774 114 q 731 123 738 114 q 712 142 723 132 q 677 118 696 129 q 638 107 658 107 q 610 116 618 107 q 590 136 602 126 q 561 116 577 124 q 527 107 545 107 q 509 109 515 107 q 500 116 503 111 q 493 125 496 120 q 480 136 489 130 q 455 119 467 124 q 427 113 443 113 q 396 127 404 113 q 388 162 388 142 q 401 216 388 188 q 437 265 415 243 q 486 300 459 286 q 540 314 514 314 q 564 310 554 314 q 573 291 573 307 q 551 268 573 268 q 531 276 534 268 q 521 285 528 285 q 490 272 506 285 q 462 240 475 259 q 440 201 448 221 q 431 166 431 181 q 433 154 431 159 q 444 149 435 149 q 467 161 457 149 q 485 184 477 172 q 493 197 486 188 q 506 218 499 207 q 518 239 512 229 q 527 253 524 249 q 544 256 532 256 q 558 256 550 256 q 566 247 566 256 l 566 243 q 550 205 558 227 q 534 163 541 184 q 531 153 531 158 q 536 150 532 150 q 543 149 540 149 q 566 158 554 149 q 586 174 579 166 q 589 217 587 198 q 598 258 590 236 q 620 313 603 278 q 659 383 637 349 q 709 442 681 417 q 762 467 736 467 q 782 458 777 467 q 787 435 787 448 q 775 375 787 405 q 748 321 762 346 q 697 246 725 279 q 635 179 670 213 l 635 174 q 643 156 635 162 q 663 149 651 149 q 686 156 674 149 q 706 174 699 163 q 744 295 713 242 q 825 395 775 349 q 856 411 838 411 q 878 395 874 411 q 879 388 878 394 q 880 382 880 383 q 858 300 880 341 q 810 230 836 259 q 804 224 809 229 q 793 213 799 218 q 781 202 787 207 q 773 194 775 197 q 762 185 765 187 q 758 175 758 184 q 777 156 758 156 q 806 171 794 156 q 825 198 817 185 q 829 206 826 200 q 836 220 832 213 q 843 233 839 227 q 846 240 846 239 q 854 253 848 245 q 866 272 859 262 q 878 292 872 282 q 887 304 884 301 q 894 310 890 310 l 923 310 q 926 305 926 310 l 926 297 l 871 197 q 866 184 868 192 q 864 169 864 175 q 871 161 864 161 q 893 171 883 161 q 909 190 903 182 q 943 243 924 211 q 972 299 961 275 l 978 304 l 1013 304 q 1014 298 1014 304 l 1014 295 l 877 14 q 855 -1 868 -1 q 838 16 838 -1 l 838 23 m 13 172 q 19 215 13 194 q 33 255 25 236 q 91 345 56 302 q 170 420 126 388 q 265 470 214 451 q 372 489 317 489 q 417 485 394 489 q 459 470 440 480 q 490 443 477 460 q 502 399 502 425 q 486 346 502 370 q 443 311 470 321 l 333 275 q 336 273 334 275 q 372 241 360 255 q 383 198 383 227 l 383 179 q 342 129 373 146 q 279 113 311 113 q 246 119 262 113 q 230 146 230 126 q 235 166 230 158 q 252 174 240 174 q 273 161 269 174 q 278 136 276 149 q 322 158 302 140 q 341 203 341 177 q 336 224 341 214 q 323 243 330 234 q 310 260 315 252 q 304 275 304 268 q 315 294 304 286 q 333 304 326 301 q 347 311 337 305 q 369 322 357 317 q 391 332 380 327 q 405 339 401 337 q 436 369 425 349 q 447 411 447 389 q 422 456 447 444 q 367 467 396 467 q 281 448 323 467 q 204 401 240 430 q 138 336 168 372 q 90 263 109 299 q 68 216 78 240 q 58 163 58 191 q 67 123 58 143 q 101 103 75 103 q 143 122 126 103 q 171 162 161 142 l 242 311 q 262 347 250 327 q 289 385 273 367 q 322 414 304 402 q 362 425 340 425 l 373 425 q 376 421 376 424 q 373 415 376 417 q 335 383 352 399 q 307 341 318 366 l 218 156 q 174 101 203 124 q 109 77 145 77 q 40 104 67 77 q 13 172 13 132 m 1249 177 q 1256 184 1249 184 l 1385 184 l 1385 152 l 1264 152 q 1255 162 1262 152 q 1249 177 1249 172 m 1196 234 q 1204 246 1196 246 l 1385 246 l 1385 213 l 1217 213 l 1196 234 m 842 375 q 833 365 838 369 q 827 357 830 360 q 820 352 823 354 q 800 325 812 341 q 779 289 788 308 q 762 252 770 271 q 755 218 755 233 l 755 216 q 783 243 768 229 q 807 275 799 258 q 813 286 809 278 q 822 305 817 295 q 832 324 828 314 q 839 339 836 334 q 848 375 848 356 l 842 375 m 757 437 q 720 409 741 437 q 680 344 699 380 q 648 272 661 307 q 635 223 635 237 l 635 218 q 692 292 668 249 q 736 375 716 334 q 750 404 744 388 q 757 437 757 421 m 1123 295 q 1126 302 1123 298 q 1133 307 1128 307 l 1385 307 l 1385 275 l 1144 275 q 1137 281 1141 278 q 1126 291 1133 284 q 1123 295 1123 292 m 1027 354 q 1032 364 1027 359 q 1039 369 1036 369 l 1385 369 l 1385 337 l 1053 337 q 1046 340 1049 339 q 1036 347 1042 341 q 1032 350 1033 349 q 1027 354 1027 352 m 888 422 q 891 426 890 424 q 894 428 893 428 l 1385 428 l 1385 398 l 936 398 q 923 404 929 401 q 911 408 917 407 q 901 412 904 409 q 894 416 900 414 q 888 422 888 418 z "},"µ":{"ha":1389,"x_min":30,"x_max":1364,"o":"m 637 281 l 637 110 l 268 10 q 211 7 239 1 q 162 26 184 12 q 124 64 140 41 q 103 116 109 87 l 103 275 q 111 315 103 295 q 140 353 120 336 q 115 378 124 365 q 103 414 106 392 l 103 430 l 103 589 q 111 638 103 613 q 135 683 120 663 q 172 718 150 703 q 218 738 194 732 l 637 854 l 637 683 l 305 595 q 271 568 285 587 q 262 524 258 548 q 284 490 266 503 q 323 485 302 476 l 764 600 q 740 621 751 609 q 725 650 729 634 q 736 705 720 679 q 780 738 751 731 q 831 729 809 747 q 856 683 854 712 q 841 622 865 650 l 972 655 l 972 788 l 1111 826 l 1111 694 l 1364 761 l 1364 479 l 1233 441 l 1233 557 l 305 308 q 271 281 285 301 q 262 237 258 262 q 284 205 266 217 q 323 198 302 194 l 637 281 m 841 683 q 818 714 836 703 q 780 716 800 725 q 749 694 760 712 q 741 655 738 676 q 762 625 745 635 q 797 622 780 615 q 829 645 817 626 q 841 683 841 663 m 1249 645 q 1243 631 1249 637 q 1229 624 1237 625 q 1215 626 1221 622 q 1209 639 1209 629 l 1209 700 l 1117 677 l 1117 618 q 1124 592 1118 603 q 1141 573 1130 582 q 1176 561 1153 564 q 1201 564 1188 558 q 1225 576 1214 569 q 1249 595 1238 583 l 1249 469 l 1343 490 l 1343 738 l 1249 710 l 1249 645 m 747 579 l 747 446 l 835 473 l 835 600 l 747 579 m 648 551 l 603 502 l 566 530 l 482 506 l 560 457 l 482 380 l 538 396 l 582 441 l 625 418 l 709 441 l 625 490 l 703 567 l 648 551 m 990 606 q 968 626 981 618 q 935 634 955 634 q 889 608 910 629 q 868 557 868 586 q 881 515 864 532 q 923 502 898 498 q 964 516 948 502 q 990 545 981 530 l 990 512 l 1088 540 l 1088 799 l 990 771 l 990 606 m 328 187 q 277 194 299 179 q 250 237 255 208 q 262 292 247 266 q 305 326 276 317 l 450 357 l 450 427 l 394 414 l 273 380 q 213 339 240 372 q 185 269 185 307 l 185 210 q 186 198 185 205 q 190 187 187 191 q 202 150 191 166 q 229 124 213 133 q 263 111 245 114 q 301 116 282 109 l 454 153 l 621 198 l 621 265 l 328 187 l 328 187 m 262 661 q 207 624 229 652 q 185 561 185 595 l 185 479 q 190 463 185 469 q 226 407 194 425 q 295 396 258 388 l 450 441 l 450 506 l 323 473 q 276 480 298 466 q 250 524 255 495 q 260 577 243 553 q 301 606 276 602 l 621 694 l 621 761 l 366 689 l 262 661 m 223 734 q 143 677 174 720 q 113 584 113 634 l 113 435 l 113 414 q 128 380 117 396 q 152 353 139 365 q 124 315 136 336 q 113 269 113 294 l 113 153 l 113 126 q 172 43 126 72 q 273 27 218 14 l 621 122 l 621 187 l 454 143 l 295 98 q 218 113 253 91 q 174 177 182 135 l 174 204 l 174 269 q 197 340 174 307 q 262 385 220 373 l 268 385 q 206 407 230 385 q 174 463 182 430 l 174 485 l 174 567 q 196 634 174 605 q 256 673 218 664 l 362 700 l 621 771 l 621 838 l 223 734 l 223 734 m 654 694 q 663 748 645 723 q 709 777 680 773 q 752 777 734 786 l 758 771 l 829 734 q 805 739 817 736 q 780 738 793 742 q 736 705 751 731 q 725 650 720 679 q 740 621 729 634 q 764 600 751 609 l 323 485 q 284 490 302 476 q 262 524 266 503 l 262 530 l 262 534 l 268 534 l 284 534 l 692 645 q 665 661 676 648 q 654 694 654 674 m 560 893 l 637 854 l 218 738 q 172 718 194 732 q 135 683 150 703 q 111 638 120 663 q 103 589 103 613 l 103 430 l 103 414 q 115 378 106 392 q 140 353 124 365 l 97 380 l 58 396 q 41 422 46 409 q 30 451 35 435 l 30 473 l 30 634 q 61 727 30 684 q 146 783 91 770 l 560 893 m 103 116 q 133 54 110 78 q 190 16 156 29 q 137 23 163 16 q 90 44 111 30 q 55 77 69 58 q 36 122 41 97 q 33 132 36 124 q 30 143 30 139 l 30 275 q 43 320 35 299 q 69 357 52 341 q 74 363 71 359 q 80 369 77 366 q 91 375 84 372 l 135 347 q 111 315 119 334 q 103 275 103 295 l 103 116 l 103 116 m 1233 557 l 1233 441 l 1155 485 l 1155 534 l 1233 557 m 901 832 l 1039 865 l 1111 826 l 972 788 l 901 832 m 968 655 l 896 639 l 841 622 q 856 683 865 650 l 856 689 l 896 700 l 968 655 m 1364 761 l 1111 694 l 1111 755 l 1292 804 l 1364 761 m 896 700 l 896 826 l 972 783 l 972 661 l 896 700 z "},"º":{"ha":1389,"x_min":14,"x_max":1382,"o":"m 124 207 l 124 0 l 194 0 l 194 207 l 304 207 l 304 259 l 14 259 l 14 207 l 124 207 m 376 259 l 234 0 l 304 0 l 328 38 l 483 38 l 509 0 l 576 0 l 434 259 l 376 259 m 590 259 l 590 0 l 658 0 l 658 259 l 590 259 m 790 207 l 790 0 l 861 0 l 861 207 l 969 207 l 969 259 l 681 259 l 681 207 l 790 207 m 404 184 l 408 184 l 450 93 l 360 93 l 404 184 m 1053 127 q 1077 192 1053 174 q 1139 210 1101 210 q 1204 191 1181 210 q 1227 132 1227 172 q 1204 67 1227 84 q 1140 49 1181 49 q 1077 67 1101 49 q 1053 127 1053 84 m 981 124 q 1025 29 981 58 q 1143 0 1069 0 q 1262 33 1221 0 q 1304 130 1304 65 q 1262 224 1304 191 q 1143 258 1221 258 q 1023 224 1065 258 q 981 127 981 190 l 981 124 m 637 412 q 632 447 635 427 q 629 489 629 467 q 630 551 629 521 q 639 618 631 582 q 663 703 647 655 q 706 820 679 751 q 778 956 741 903 q 842 1039 815 1008 q 1228 412 849 1024 l 637 412 m 794 1108 q 418 412 418 829 l 87 412 l 661 1322 l 794 1108 m 1382 1364 q 1369 1315 1382 1338 q 1332 1273 1356 1292 q 1282 1242 1309 1254 q 1224 1230 1254 1230 q 1170 1242 1198 1230 q 1119 1273 1141 1254 q 1083 1315 1097 1292 q 1069 1364 1069 1338 q 1082 1413 1069 1389 q 1118 1457 1095 1438 q 1168 1487 1140 1476 q 1224 1499 1196 1499 q 1282 1487 1254 1499 q 1332 1455 1309 1474 q 1369 1412 1356 1437 q 1382 1364 1382 1387 m 1042 1236 q 911 1119 956 1168 q 842 1039 867 1071 q 827 1063 839 1045 q 794 1108 815 1082 q 859 1147 826 1126 q 924 1186 891 1168 q 987 1218 958 1205 q 1042 1236 1017 1231 z "},"»":{"ha":1389,"x_min":14,"x_max":1389,"o":"m 14 220 l 14 276 l 323 276 l 323 220 l 205 220 l 205 0 l 132 0 l 132 220 l 14 220 m 462 276 l 613 0 l 543 0 l 514 41 l 349 41 l 323 0 l 249 0 l 401 276 l 462 276 m 700 276 l 700 0 l 628 0 l 628 276 l 700 276 m 726 220 l 726 276 l 1033 276 l 1033 220 l 917 220 l 917 0 l 841 0 l 841 220 l 726 220 m 383 98 l 479 98 l 434 195 l 430 195 l 383 98 m 1123 136 q 1148 71 1123 90 q 1215 52 1173 52 q 1282 71 1257 52 q 1306 140 1306 90 q 1282 203 1306 182 q 1212 224 1257 224 q 1147 205 1172 224 q 1123 136 1123 185 m 1045 136 q 1090 239 1045 203 q 1218 275 1136 275 q 1345 239 1301 275 q 1389 139 1389 204 q 1345 35 1389 69 q 1218 0 1301 0 q 1092 31 1139 0 q 1045 133 1045 62 l 1045 136 z "},"ä":{"ha":1389,"x_min":174,"x_max":1389,"o":"m 347 868 l 347 1042 l 521 1042 l 521 1215 l 1042 1215 l 1042 1042 l 1215 1042 l 1215 868 l 1389 868 l 1389 0 l 1042 0 l 1042 347 l 521 347 l 521 0 l 174 0 l 174 868 l 347 868 m 521 521 l 1042 521 l 1042 868 l 868 868 l 868 1042 l 694 1042 l 694 868 l 521 868 l 521 521 m 174 1563 l 521 1563 l 521 1389 l 174 1389 l 174 1563 m 1042 1563 l 1389 1563 l 1389 1389 l 1042 1389 l 1042 1563 z "},"Ü":{"ha":1389,"x_min":174,"x_max":1389,"o":"m 174 174 l 174 1215 l 521 1215 l 521 174 l 1042 174 l 1042 1215 l 1389 1215 l 1389 174 l 1215 174 l 1215 0 l 347 0 l 347 174 l 174 174 m 174 1563 l 521 1563 l 521 1389 l 174 1389 l 174 1563 m 1042 1563 l 1389 1563 l 1389 1389 l 1042 1389 l 1042 1563 z "},"ö":{"ha":1389,"x_min":174,"x_max":1389,"o":"m 174 174 l 174 1042 l 347 1042 l 347 1215 l 1215 1215 l 1215 1042 l 1389 1042 l 1389 174 l 1215 174 l 1215 0 l 347 0 l 347 174 l 174 174 m 521 174 l 1042 174 l 1042 1042 l 521 1042 l 521 174 m 174 1563 l 521 1563 l 521 1389 l 174 1389 l 174 1563 m 1042 1563 l 1389 1563 l 1389 1389 l 1042 1389 l 1042 1563 z "},"Ä":{"ha":1389,"x_min":174,"x_max":1389,"o":"m 347 868 l 347 1042 l 521 1042 l 521 1215 l 1042 1215 l 1042 1042 l 1215 1042 l 1215 868 l 1389 868 l 1389 0 l 1042 0 l 1042 347 l 521 347 l 521 0 l 174 0 l 174 868 l 347 868 m 521 521 l 1042 521 l 1042 868 l 868 868 l 868 1042 l 694 1042 l 694 868 l 521 868 l 521 521 m 174 1563 l 521 1563 l 521 1389 l 174 1389 l 174 1563 m 1042 1563 l 1389 1563 l 1389 1389 l 1042 1389 l 1042 1563 z "},"ü":{"ha":1389,"x_min":174,"x_max":1389,"o":"m 174 174 l 174 1215 l 521 1215 l 521 174 l 1042 174 l 1042 1215 l 1389 1215 l 1389 174 l 1215 174 l 1215 0 l 347 0 l 347 174 l 174 174 m 174 1563 l 521 1563 l 521 1389 l 174 1389 l 174 1563 m 1042 1563 l 1389 1563 l 1389 1389 l 1042 1389 l 1042 1563 z "},"Ö":{"ha":1389,"x_min":174,"x_max":1389,"o":"m 174 174 l 174 1042 l 347 1042 l 347 1215 l 1215 1215 l 1215 1042 l 1389 1042 l 1389 174 l 1215 174 l 1215 0 l 347 0 l 347 174 l 174 174 m 521 174 l 1042 174 l 1042 1042 l 521 1042 l 521 174 m 174 1563 l 521 1563 l 521 1389 l 174 1389 l 174 1563 m 1042 1563 l 1389 1563 l 1389 1389 l 1042 1389 l 1042 1563 z "},"Ë":{"ha":1389,"x_min":174,"x_max":1389,"o":"m 1389 1215 l 1389 1042 l 521 1042 l 521 694 l 1215 694 l 1215 521 l 521 521 l 521 174 l 1389 174 l 1389 0 l 174 0 l 174 1215 l 1389 1215 m 174 1563 l 521 1563 l 521 1389 l 174 1389 l 174 1563 m 1042 1563 l 1389 1563 l 1389 1389 l 1042 1389 l 1042 1563 z "},"ë":{"ha":1389,"x_min":174,"x_max":1389,"o":"m 1389 1215 l 1389 1042 l 521 1042 l 521 694 l 1215 694 l 1215 521 l 521 521 l 521 174 l 1389 174 l 1389 0 l 174 0 l 174 1215 l 1389 1215 m 174 1563 l 521 1563 l 521 1389 l 174 1389 l 174 1563 m 1042 1563 l 1389 1563 l 1389 1389 l 1042 1389 l 1042 1563 z "},"¼":{"ha":1389,"x_min":12,"x_max":1304,"o":"m 122 207 l 122 0 l 191 0 l 191 207 l 301 207 l 301 259 l 12 259 l 12 207 l 122 207 m 590 259 l 590 0 l 658 0 l 658 259 l 590 259 m 790 207 l 790 0 l 861 0 l 861 207 l 969 207 l 969 259 l 681 259 l 681 207 l 790 207 m 1053 127 q 1077 192 1053 174 q 1139 210 1101 210 q 1204 191 1181 210 q 1227 132 1227 172 q 1204 67 1227 84 q 1140 49 1181 49 q 1077 67 1101 49 q 1053 127 1053 84 m 981 124 q 1025 29 981 58 q 1143 0 1069 0 q 1262 33 1221 0 q 1304 130 1304 65 q 1262 224 1304 191 q 1143 258 1221 258 q 1023 224 1065 258 q 981 127 981 190 l 981 124 m 385 0 q 383 12 385 4 q 382 26 382 19 q 382 46 382 36 q 385 69 382 56 q 394 98 388 81 q 408 139 399 114 q 433 184 421 166 q 454 213 446 203 q 586 0 457 207 l 385 0 m 438 236 q 311 0 311 142 l 198 0 l 392 308 l 438 236 m 674 320 q 670 304 674 313 q 658 290 666 295 q 642 281 651 285 q 624 278 632 278 q 605 281 613 278 q 589 290 596 285 q 577 304 582 295 q 573 320 573 313 q 577 337 573 328 q 589 352 582 346 q 605 361 596 357 q 624 365 613 365 q 642 360 632 365 q 658 350 651 356 q 670 336 666 344 q 674 320 674 328 m 544 285 q 477 241 492 258 q 454 213 462 224 q 449 221 453 214 q 438 236 446 227 q 459 249 448 242 q 481 263 470 256 q 503 273 492 269 q 544 285 514 278 z "}}}
